<?xml version="1.0" encoding="utf-8"?>
<!-- Generator: Adobe Illustrator 26.3.1, SVG Export Plug-In . SVG Version: 6.00 Build 0)  -->
<svg version="1.1" id="_イヤー_2" xmlns="http://www.w3.org/2000/svg" xmlns:xlink="http://www.w3.org/1999/xlink" x="0px"
	 y="0px" viewBox="0 0 150 80" style="enable-background:new 0 0 150 80;" xml:space="preserve">
<style type="text/css">
	.st0{fill:#E0E1D9;}
</style>
<g>
	<g id="logo-200_00000012451750515379033200000018190334661491868857_">
		<path class="st0" d="M150.1,39.9l-56.7-40v0.2C93.2,0,93-0.1,92.7-0.1H0.1v0.4l56.1,39.6L0.1,79.5v0.4h92.6c0.2,0,0.5-0.1,0.7-0.2
			v0.2L150.1,39.9z"/>
	</g>
	<g>
		<path d="M69.5,19c-0.4-0.2-1.1-0.5-2.2-0.5c-1.7,0-2.4,1-2.4,1.8c0,1.2,0.7,1.7,2.4,2.4c2,0.8,3,1.8,3,3.4c0,1.9-1.4,3.3-4.1,3.3
			c-1.1,0-2.3-0.3-2.9-0.7l0.4-1.1c0.7,0.4,1.6,0.7,2.7,0.7c1.6,0,2.6-0.8,2.6-2.1c0-1.2-0.7-1.9-2.3-2.5c-1.9-0.7-3.1-1.7-3.1-3.3
			c0-1.8,1.5-3.1,3.8-3.1c1.2,0,2.1,0.3,2.5,0.6L69.5,19z"/>
		<path d="M79.7,18.6h-3.6v10.6h-1.3V18.6h-3.6v-1.1h8.6V18.6z"/>
		<path d="M87.5,29.2H81V17.6h6.2v1.1h-4.9v4H87v1.1h-4.6v4.5h5.2V29.2z"/>
		<path d="M89.5,17.7c0.7-0.1,1.6-0.2,2.8-0.2c4,0,4.3,2.4,4.3,3.3c0,2.7-2.3,3.7-4.5,3.7c-0.5,0-0.9,0-1.3-0.1v4.8h-1.3V17.7z
			 M90.8,23.4c0.3,0.1,0.8,0.1,1.3,0.1c1.9,0,3.1-0.9,3.1-2.6c0-1.7-1.3-2.4-2.9-2.4c-0.7,0-1.2,0.1-1.5,0.1V23.4z"/>
		<path d="M102.4,23c1.4,0.2,2.6,1.3,2.6,3c0,1.8-1.4,3.4-4.1,3.4c-1.2,0-2.3-0.4-2.9-0.7l0.4-1c0.4,0.3,1.4,0.7,2.5,0.7
			c2,0,2.7-1.4,2.7-2.4c0-1.7-1.5-2.5-3.1-2.5h-0.8v-1h0.8c1.2,0,2.7-0.7,2.7-2.1c0-1-0.6-1.9-2.1-1.9c-0.9,0-1.7,0.4-2.2,0.8
			l-0.4-0.9c0.6-0.4,1.7-0.9,2.9-0.9c2.2,0,3.2,1.3,3.2,2.7C104.6,21.4,103.8,22.5,102.4,23L102.4,23z"/>
	</g>
	<g>
		<path d="M65.9,53.9v3.6c0.9,1.3,2.6,1.3,4.7,1.3c1.3,0,2.8,0,3.7-0.1c-0.1,0.2-0.2,0.5-0.3,0.8c-0.8,0-2.1,0.1-3.3,0.1
			c-2.4,0-4,0-5.2-1.4c-0.6,0.5-1.2,1-1.7,1.4c0,0.1,0,0.1-0.1,0.2L63.3,59c0.6-0.4,1.3-0.9,1.9-1.4v-3h-1.7v-0.7H65.9z M64.2,49.8
			c0.8,0.5,1.7,1.2,2.1,1.8L65.7,52c-0.4-0.6-1.3-1.3-2.1-1.8L64.2,49.8z M74.1,54.7H71c0.5,1.5,1.5,2.5,3.1,2.9
			c-0.2,0.1-0.4,0.4-0.5,0.6c-1.6-0.5-2.6-1.5-3.2-3.1c-0.3,1-1.2,2.1-3.2,3c-0.1-0.2-0.4-0.4-0.5-0.6c2.1-0.8,2.8-1.9,3-3h-3.1V54
			h3.2c0-0.1,0-0.3,0-0.4v-1.3H67v-0.7h4.7l-0.6-0.3c0.4-0.5,0.9-1.3,1.2-1.9l0.9,0.3c0,0.1-0.1,0.1-0.3,0.1
			c-0.3,0.5-0.8,1.2-1.2,1.7h2v0.7h-3.1v1.3c0,0.1,0,0.3,0,0.4h3.5V54.7z M68.6,51.7c-0.2-0.5-0.6-1.3-1.1-1.9l0.7-0.3
			c0.5,0.6,0.9,1.3,1.1,1.8L68.6,51.7z"/>
		<path d="M76.7,53.4c-0.4,0.7-0.9,1.3-1.4,1.9c-0.1-0.2-0.3-0.5-0.4-0.7c1.1-1.2,2.2-3.1,2.9-5l0.9,0.3c0,0.1-0.1,0.1-0.3,0.1
			c-0.3,0.8-0.7,1.6-1.1,2.3l0.3,0.1c0,0.1-0.1,0.1-0.2,0.1v7.4h-0.8V53.4z M78.3,51.6H86v0.6h-7.7V51.6z M79.1,59.8v-3.6h6.1v3.5
			h-0.8v-0.5h-4.5v0.6H79.1z M85.1,53.2v0.6h-5.8v-0.6H85.1z M79.2,55.3v-0.6h5.8v0.6H79.2z M84.9,50v0.6h-5.5V50H84.9z M84.4,56.9
			h-4.5v1.8h4.5V56.9z"/>
		<path d="M93.9,58.5c0,0.3,0.1,0.4,0.6,0.4h1.8c0.5,0,0.6-0.2,0.6-1.5c0.2,0.1,0.5,0.2,0.7,0.3c-0.1,1.5-0.3,1.9-1.3,1.9h-1.9
			c-1,0-1.3-0.2-1.3-1.1v-2.9H91l-0.1,0c-0.3,1.9-0.9,3.4-3.8,4.2c-0.1-0.2-0.3-0.5-0.5-0.6c2.5-0.6,3.1-1.9,3.4-3.6H87v-0.7h10.6
			v0.7h-3.6V58.5z M88.1,51.6v1.6h-0.8v-2.3h4.5v-1.4l1.1,0.1c0,0.1-0.1,0.1-0.2,0.2v1.2h4.5v2.3h-0.8v-1.6H88.1z M95.5,53.6h-6.4
			v-0.7h6.4V53.6z"/>
		<path d="M107.5,50.3l0.7,0.4c0,0.1-0.1,0.1-0.2,0.1c-1,1.1-2.6,2.4-4.1,3.1v4.8c0,0.5-0.2,0.8-0.6,0.9c-0.4,0.1-1.2,0.1-2.4,0.1
			c0-0.2-0.2-0.5-0.3-0.8c0.6,0,1.3,0,1.7,0c0.8,0,0.9,0,0.9-0.3v-5.5l0.5,0c1-0.6,2.2-1.4,3-2.2h-7.8v-0.7h8.6L107.5,50.3z"/>
	</g>
</g>
</svg>
