<?xml version="1.0" encoding="utf-8"?>
<!-- Generator: Adobe Illustrator 26.3.1, SVG Export Plug-In . SVG Version: 6.00 Build 0)  -->
<svg version="1.1" id="_イヤー_2" xmlns="http://www.w3.org/2000/svg" xmlns:xlink="http://www.w3.org/1999/xlink" x="0px"
	 y="0px" viewBox="0 0 180 100" style="enable-background:new 0 0 180 100;" xml:space="preserve">
<style type="text/css">
	.st0{fill:#E0E1D9;}
</style>
<g>
	<g id="logo-200">
		<path class="st0" d="M180.3,50l-68-50v0.2C112,0.1,111.8,0,111.5,0H0.3v0.5L67.7,50L0.3,99.5v0.5h111.1c0.3,0,0.6-0.1,0.9-0.2v0.2
			L180.3,50z"/>
	</g>
	<g>
		<path d="M83.5,23.8c-0.4-0.3-1.4-0.7-2.6-0.7c-2.1,0-2.8,1.2-2.8,2.3c0,1.4,0.9,2.2,2.9,3c2.4,1,3.6,2.2,3.6,4.3
			c0,2.3-1.7,4.1-4.9,4.1c-1.3,0-2.8-0.4-3.5-0.9l0.4-1.3c0.8,0.5,2,0.9,3.2,0.9c2,0,3.1-1.1,3.1-2.6c0-1.4-0.8-2.3-2.7-3.1
			c-2.2-0.8-3.7-2.1-3.7-4.1c0-2.2,1.8-3.9,4.5-3.9c1.4,0,2.5,0.3,3,0.7L83.5,23.8z"/>
		<path d="M95.8,23.4h-4.4v13.3h-1.6V23.4h-4.3V22h10.3V23.4z"/>
		<path d="M105.2,36.6h-7.8V22h7.5v1.3H99v5h5.5v1.3H99v5.7h6.2V36.6z"/>
		<path d="M107.6,22.2c0.9-0.2,2-0.3,3.4-0.3c4.8,0,5.2,3,5.2,4.2c0,3.4-2.8,4.7-5.4,4.7c-0.6,0-1.1,0-1.5-0.1v6h-1.6V22.2z
			 M109.2,29.3c0.4,0.1,0.9,0.2,1.6,0.2c2.3,0,3.7-1.2,3.7-3.2c0-2.1-1.5-3-3.5-3c-0.8,0-1.4,0.1-1.8,0.2V29.3z"/>
		<path d="M126.5,36.6h-8.6v-1l1.4-1.5c3.5-3.5,5.2-5.5,5.2-7.9c0-1.5-0.7-3-2.8-3c-1.2,0-2.2,0.6-2.9,1.2l-0.5-1.1
			c0.9-0.8,2.2-1.4,3.8-1.4c2.9,0,4.1,2.1,4.1,4.1c0,2.7-1.9,5-4.9,8l-1.1,1.2v0h6.4V36.6z"/>
	</g>
	<g>
		<path d="M88.5,64.3v9.2c0,0.7-0.2,1-0.6,1.1c-0.5,0.2-1.3,0.2-2.6,0.2c0-0.3-0.2-0.7-0.3-1c0.5,0,1,0,1.4,0c1.2,0,1.2,0,1.2-0.4
			v-8.3h-4.4c0,0.6-0.1,1.2-0.2,1.8c1.5,1.3,3.2,3,4.1,4l-0.8,0.6c-0.8-1-2.2-2.5-3.6-3.7c-0.5,1.4-1.6,2.8-3.6,4
			c-0.1-0.2-0.4-0.5-0.7-0.7c3.2-1.7,3.7-4.1,3.8-5.9H78v9.6h-0.9V64.3h5.1v-2.4l1.2,0.1c0,0.1-0.1,0.2-0.3,0.2v2.2H88.5z"/>
		<path d="M92.9,70.7c-0.7,0.4-1.3,0.8-2,1.1c-0.1-0.2-0.4-0.6-0.5-0.8c2.4-1.1,4.9-3,6-4.7l1.4,0.1c0,0.1-0.1,0.2-0.3,0.2
			c1.4,1.6,3.9,3.3,6,4.2c-0.2,0.2-0.4,0.6-0.6,0.8c-0.7-0.3-1.4-0.7-2.1-1.2v4.2h-1v-0.4h-6v0.5h-0.9V70.7z M91.9,64.2v1.6h-0.9
			v-2.5h5.4v-1.4l1.3,0.1c0,0.1-0.1,0.2-0.3,0.2v1.2h5.4v2.5h-1v-1.6H91.9z M95.5,65.4c-0.1,0.1-0.2,0.1-0.3,0.1
			c-0.9,1.1-2.3,2.2-3.6,2.9c-0.1-0.2-0.4-0.5-0.6-0.7c1.2-0.6,2.6-1.7,3.5-2.7L95.5,65.4z M100.1,70.2c-1.3-0.9-2.5-1.9-3.2-2.8
			c-0.7,0.9-1.8,1.9-3.1,2.8H100.1z M93.8,73.5h6V71h-6V73.5z M101.9,68.3c-0.8-0.8-2.4-2-3.7-2.9l0.6-0.6c1.3,0.8,3,1.9,3.8,2.8
			L101.9,68.3z"/>
		<path d="M109.6,63.7h-2.5c-0.2,1.2-0.4,2.3-0.7,3.4h2.8v6.1h-2.8v1.1h-0.8v-4.9c-0.3,0.6-0.6,1.1-0.9,1.5
			c-0.1-0.2-0.4-0.6-0.5-0.8c1-1.4,1.7-3.8,2-6.3h-1.7v-0.9h5.1V63.7z M108.3,72.3v-4.4h-1.9v4.4H108.3z M117.4,73.5v0.8h-5.8v0.7
			h-0.9v-6.2c-0.3,0.4-0.7,0.7-1.1,1c-0.1-0.2-0.4-0.6-0.5-0.8c1.3-1,2.3-2.7,3.1-4.6h-1.7v1.7h-0.8v-2.5h2.8
			c0.2-0.5,0.3-1.1,0.5-1.7l1.2,0.3c0,0.1-0.1,0.2-0.3,0.2c-0.1,0.4-0.2,0.8-0.4,1.3h3.8v2.5h-0.9v-1.7h-3.2
			c-0.3,0.9-0.7,1.7-1.1,2.5h1.7c0.3-0.6,0.6-1.3,0.7-1.9l1.1,0.3c0,0.1-0.1,0.1-0.3,0.1c-0.2,0.4-0.4,0.9-0.6,1.4h2.5v0.8h-2.6v1.4
			h2.3v0.8h-2.3v1.4h2.3V72h-2.3v1.4H117.4z M113.6,69.1v-1.4h-2v1.4H113.6z M113.6,71.3v-1.4h-2v1.4H113.6z M111.6,72v1.4h2V72
			H111.6z"/>
		<path d="M123.5,64.3v0.8h-5.1v-0.8H123.5z M123.1,70V74h-3.2v0.7H119V70H123.1z M123.1,66.2v0.8h-4v-0.8H123.1z M119,68.8v-0.8h4
			v0.8H119z M123,62.4v0.8h-3.9v-0.8H123z M122.2,70.7h-2.4v2.5h2.4V70.7z M125.2,70.7c-0.2,1.2-0.5,2.5-1.2,3.3l-0.7-0.5
			c0.7-0.7,1-1.9,1.2-3L125.2,70.7z M127.6,63.3c-0.1,0.6-0.3,1.2-0.5,1.9c0.7,0.3,1.3,0.7,1.7,1l-0.5,0.7c-0.4-0.3-1-0.6-1.6-1
			c-0.5,1.1-1.3,2-2.6,2.7c-0.1-0.2-0.4-0.5-0.6-0.7c1.2-0.6,2-1.4,2.4-2.4c-0.6-0.3-1.3-0.6-1.9-0.8l0.5-0.7
			c0.6,0.2,1.2,0.4,1.7,0.7c0.2-0.5,0.3-1,0.4-1.5h-2.5v-0.8h5.9l0.4,0l0.5,0.1c-0.1,0.5-0.1,4.7-0.7,5.3c-0.3,0.4-0.7,0.4-1.3,0.4
			c-0.4,0-0.8,0-1.2,0c0-0.3-0.1-0.6-0.3-0.8c0.7,0.1,1.1,0.1,1.7,0.1c0.2,0,0.3,0,0.4-0.1c0.2-0.3,0.4-1.3,0.5-4H127.6z
			 M126.7,73.4c0,0.3,0.1,0.4,0.5,0.4h1.4c0.4,0,0.4-0.2,0.5-1.6c0.2,0.1,0.6,0.3,0.8,0.3c-0.1,1.7-0.3,2.1-1.2,2.1H127
			c-1,0-1.2-0.3-1.2-1.2v-3.3l1.2,0.1c0,0.1-0.1,0.2-0.3,0.2V73.4z M128.4,70.6c-0.5-0.6-1.6-1.4-2.5-2l0.6-0.5
			c0.9,0.5,2,1.3,2.5,1.9L128.4,70.6z M130.9,74c-0.2-0.9-0.8-2.4-1.6-3.4l0.8-0.3c0.8,1,1.4,2.4,1.6,3.3L130.9,74z"/>
	</g>
</g>
</svg>
