<?xml version="1.0" encoding="utf-8"?>
<!-- Generator: Adobe Illustrator 26.3.1, SVG Export Plug-In . SVG Version: 6.00 Build 0)  -->
<svg version="1.1" id="_イヤー_2" xmlns="http://www.w3.org/2000/svg" xmlns:xlink="http://www.w3.org/1999/xlink" x="0px"
	 y="0px" viewBox="0 0 150 80" style="enable-background:new 0 0 150 80;" xml:space="preserve">
<style type="text/css">
	.st0{fill:#17456B;}
	.st1{fill:#FFFFFF;}
</style>
<g>
	<g id="logo-200">
		<path class="st0" d="M150,40L93.3,0v0.2C93.1,0.1,92.8,0,92.6,0H0v0.4L56.1,40L0,79.6V80h92.6c0.2,0,0.5-0.1,0.7-0.2V80L150,40z"
			/>
	</g>
	<g>
		<path class="st1" d="M68.1,18.7c-0.3-0.2-1.1-0.5-2-0.5c-1.6,0-2.2,1-2.2,1.8c0,1.1,0.7,1.7,2.2,2.4c1.9,0.8,2.8,1.7,2.8,3.4
			c0,1.8-1.3,3.2-3.8,3.2c-1,0-2.2-0.3-2.8-0.7l0.3-1c0.6,0.4,1.5,0.7,2.5,0.7c1.5,0,2.5-0.8,2.5-2.1c0-1.1-0.6-1.8-2.1-2.4
			c-1.7-0.7-2.9-1.7-2.9-3.3c0-1.8,1.4-3,3.5-3c1.1,0,1.9,0.3,2.4,0.5L68.1,18.7z"/>
		<path class="st1" d="M77.7,18.4h-3.4v10.5H73V18.4h-3.4v-1.1h8.1V18.4z"/>
		<path class="st1" d="M85,28.8h-6.1V17.3h5.8v1.1h-4.6v3.9h4.3v1h-4.3v4.5H85V28.8z"/>
		<path class="st1" d="M86.9,17.5c0.7-0.1,1.5-0.2,2.6-0.2c3.7,0,4,2.4,4,3.3c0,2.7-2.2,3.7-4.2,3.7c-0.4,0-0.8,0-1.2-0.1v4.7h-1.3
			V17.5z M88.1,23.1c0.3,0.1,0.7,0.1,1.2,0.1c1.8,0,2.9-0.9,2.9-2.6s-1.2-2.4-2.8-2.4c-0.6,0-1.1,0.1-1.4,0.1V23.1z"/>
		<path class="st1" d="M98.2,28.8V18.7h0l-1.9,1.1L96,18.8l2.3-1.3h1.1v11.3H98.2z"/>
	</g>
	<g>
		<path class="st1" d="M73.2,50.4h0.8c0,2.2,0.3,6.8,5.1,9.7c-0.2,0.1-0.5,0.5-0.7,0.7c-3.1-1.9-4.4-4.7-5-7c-0.9,3.2-2.4,5.6-5,7
			c-0.2-0.2-0.5-0.5-0.7-0.6c2.7-1.4,4.2-4,5-7.5l0.5,0.1c-0.1-0.6-0.1-1.2-0.2-1.6h-3.1v-0.8L73.2,50.4L73.2,50.4z"/>
		<path class="st1" d="M89.7,52.4c0.2,0,0.2,0,0.4,0l0.5,0c0,0.1,0,0.2,0,0.3c-0.2,5.3-0.4,7.1-0.8,7.6c-0.3,0.4-0.7,0.5-1.5,0.5
			c-0.4,0-0.9,0-1.4,0c0-0.2-0.1-0.6-0.3-0.8c0.9,0.1,1.6,0.1,1.9,0.1c0.3,0,0.4,0,0.5-0.2c0.4-0.4,0.6-2.1,0.7-6.6h-4.3
			c-0.2,2.6-1,5.5-4.6,7.7c-0.1-0.2-0.4-0.5-0.6-0.6c3.4-2,4.2-4.8,4.3-7.1h-4v-0.8h4c0-0.2,0-0.4,0-0.6v-2l1.1,0.1
			c0,0.1-0.1,0.1-0.2,0.2v1.8c0,0.2,0,0.4,0,0.6H89.7z"/>
	</g>
</g>
</svg>
