<?xml version="1.0" encoding="UTF-8"?><svg id="_イヤー_2" xmlns="http://www.w3.org/2000/svg" viewBox="0 0 150 80"><defs><style>.cls-1{fill:#fff;}.cls-2{fill:#17456b;}</style></defs><g id="_イヤー_2-2"><g><g id="logo-200"><path class="cls-2" d="M150,40L93.31,0V.2c-.22-.13-.46-.2-.71-.2H0V.42L56.1,40,0,79.58v.42H92.6c.25,0,.49-.08,.71-.2v.2l56.69-40Z"/></g><g><path class="cls-1" d="M68.09,18.73c-.33-.21-1.06-.53-2.03-.53-1.61,0-2.21,.98-2.21,1.82,0,1.14,.7,1.71,2.24,2.36,1.86,.79,2.82,1.74,2.82,3.39,0,1.83-1.33,3.24-3.82,3.24-1.05,0-2.18-.32-2.76-.73l.35-1.05c.62,.41,1.55,.71,2.48,.71,1.55,0,2.45-.83,2.45-2.08,0-1.14-.62-1.83-2.12-2.44-1.74-.65-2.92-1.67-2.92-3.26,0-1.76,1.42-3.05,3.53-3.05,1.09,0,1.92,.27,2.36,.55l-.38,1.05Z"/><path class="cls-1" d="M77.68,18.38h-3.41v10.47h-1.26v-10.47h-3.39v-1.06h8.06v1.06Z"/><path class="cls-1" d="M85.03,28.85h-6.09v-11.55h5.83v1.06h-4.58v3.91h4.3v1.05h-4.3v4.47h4.83v1.06Z"/><path class="cls-1" d="M86.89,17.45c.67-.12,1.54-.23,2.62-.23,3.73,0,4.03,2.39,4.03,3.3,0,2.71-2.17,3.68-4.21,3.68-.44,0-.83-.02-1.18-.11v4.74h-1.26v-11.39Zm1.26,5.61c.32,.09,.73,.12,1.21,.12,1.82,0,2.92-.91,2.92-2.56s-1.18-2.38-2.76-2.38c-.64,0-1.11,.06-1.38,.12v4.7Z"/><path class="cls-1" d="M98.18,28.85v-10.17h-.03l-1.86,1.08-.3-.94,2.35-1.32h1.08v11.35h-1.23Z"/></g><g><path class="cls-1" d="M68.63,52.7h1.03c0,2.71,.35,8.59,6.47,12.23-.23,.18-.64,.61-.82,.86-3.94-2.39-5.58-5.86-6.24-8.82-1.09,4.05-3.06,7.08-6.24,8.83-.2-.21-.59-.59-.85-.77,3.35-1.74,5.3-4.97,6.26-9.38l.62,.15c-.12-.76-.18-1.46-.2-2.06h-3.86v-1.03h3.83v-.02Z"/><path class="cls-1" d="M89.31,55.14c.23,0,.26,0,.48-.01l.59,.06c0,.09-.01,.24-.03,.35-.23,6.65-.45,8.91-1.06,9.61-.42,.53-.91,.62-1.89,.62-.52,0-1.17-.02-1.79-.06-.02-.3-.15-.76-.36-1.06,1.08,.09,2.05,.11,2.42,.11,.32,0,.5-.05,.67-.23,.5-.5,.74-2.68,.94-8.35h-5.44c-.21,3.21-1.24,6.96-5.74,9.73-.17-.26-.54-.64-.79-.8,4.26-2.56,5.26-5.99,5.47-8.92h-5.03v-1.03h5.08c.01-.27,.01-.53,.01-.79v-2.58l1.36,.09c-.02,.11-.11,.18-.3,.21v2.27c0,.26,0,.52-.02,.79h5.42Z"/></g></g></g></svg>