<?xml version="1.0" encoding="UTF-8"?><svg id="_イヤー_1" xmlns="http://www.w3.org/2000/svg" viewBox="0 0 1024 1280"><defs><style>.cls-1{stroke-width:1.5px;}.cls-1,.cls-2,.cls-3,.cls-4,.cls-5,.cls-6,.cls-7,.cls-8,.cls-9,.cls-10,.cls-11,.cls-12{stroke:#999;}.cls-1,.cls-2,.cls-3,.cls-4,.cls-5,.cls-6,.cls-7,.cls-8,.cls-11,.cls-12{fill:none;stroke-miterlimit:10;}.cls-2{stroke-width:.77px;}.cls-3{fill-rule:evenodd;}.cls-3,.cls-8{stroke-width:2px;}.cls-4{stroke-width:3px;}.cls-5{stroke-width:1.66px;}.cls-13{fill:#999;}.cls-6{stroke-width:10px;}.cls-7{stroke-width:1.03px;}.cls-9{font-size:20px;}.cls-9,.cls-10{font-family:SourceHanSansJP-Normal-83pv-RKSJ-H, 'Source Han Sans JP';}.cls-10{font-size:17px;letter-spacing:-.1em;}.cls-11{stroke-width:1.3px;}.cls-12{stroke-width:.97px;}</style></defs><g><rect class="cls-13" x="464.87" y="671.58" width="34.27" height="29.84"/><path class="cls-13" d="M498.55,672.16v28.67h-33.1v-28.67h33.1m1.16-1.16h-35.43v31h35.43v-31h0Z"/></g><line class="cls-6" x1="468" y1="213" x2="468" y2="671"/><line class="cls-6" x1="873" y1="1073" x2="873" y2="697"/><line class="cls-6" x1="165" y1="1081.01" x2="871" y2="1081.01"/><line class="cls-6" x1="160" y1="227" x2="160" y2="1077"/><line class="cls-6" x1="468" y1="213" x2="164" y2="213"/><text class="cls-10" transform="translate(722.72 514.2)"><tspan x="0" y="0">バルコニー</tspan></text><rect class="cls-12" x="717" y="492" width="86.18" height="33.5"/><line class="cls-4" x1="163.26" y1="431.64" x2="464.5" y2="431.64"/><line class="cls-4" x1="317.62" y1="1081.73" x2="317.62" y2="696.5"/><line class="cls-4" x1="344.5" y1="696.5" x2="463.5" y2="696.5"/><path class="cls-13" d="M321,266c1.65,0,3,1.35,3,3v47c0,1.65-1.35,3-3,3H192c-1.65,0-3-1.35-3-3v-47c0-1.65,1.35-3,3-3h129m0-2H192c-2.76,0-5,2.24-5,5v47c0,2.76,2.24,5,5,5h129c2.76,0,5-2.24,5-5v-47c0-2.76-2.24-5-5-5h0Z"/><path class="cls-13" d="M304,275.49c3.31,0,6,2.69,6,6v23.01c0,3.31-2.69,6-6,6h-93c-3.31,0-6-2.69-6-6v-23.01c0-3.31,2.69-6,6-6h93m0-2h-93c-4.42,0-8,3.58-8,8v23.01c0,4.42,3.58,8,8,8h93c4.42,0,8-3.58,8-8v-23.01c0-4.42-3.58-8-8-8h0Z"/><text id="_室" class="cls-9" transform="translate(375.63 283.47)"><tspan x="0" y="0">浴室</tspan></text><rect class="cls-12" x="354.91" y="259.28" width="86.18" height="33.5"/><line class="cls-4" x1="345.06" y1="696.61" x2="345.29" y2="586.77"/><line class="cls-4" x1="344.06" y1="587.61" x2="466.5" y2="587.61"/><g><path class="cls-8" d="M448.62,606.84c-30.4,0-55.01,10.33-55.01,23.1"/><path class="cls-8" d="M448.62,653.06c-30.4,0-55.01-10.33-55.01-23.1"/><line class="cls-8" x1="448.49" y1="606.76" x2="448.49" y2="653.37"/></g><line class="cls-8" x1="449.26" y1="609.53" x2="468" y2="609.53"/><line class="cls-4" x1="158.5" y1="693.5" x2="345.99" y2="695.53"/><line class="cls-8" x1="449.26" y1="645.53" x2="467.99" y2="645.53"/><path class="cls-8" d="M441,654c0,5.53,9.39,10,21,10"/><text id="_室-2" class="cls-9" transform="translate(380.25 680.64)"><tspan x="0" y="0">WC</tspan></text><rect class="cls-2" x="361.25" y="660.5" width="68.97" height="26"/><g><path class="cls-5" d="M348,606.88c-20.31,0-36.74,14.6-36.74,32.64"/><line class="cls-5" x1="311.26" y1="638.46" x2="346.28" y2="638.46"/><line class="cls-5" x1="345.7" y1="606.88" x2="345.7" y2="637.39"/></g><g><path class="cls-5" d="M243.32,433.24c0-20.31-14.6-36.74-32.64-36.74"/><line class="cls-5" x1="211.74" y1="396.51" x2="211.74" y2="431.52"/><line class="cls-5" x1="243.32" y1="430.95" x2="212.81" y2="430.95"/></g><g><path class="cls-5" d="M655.53,701.32c0-20.31-14.6-36.74-32.64-36.74"/><line class="cls-5" x1="623.96" y1="664.58" x2="623.96" y2="699.6"/><line class="cls-5" x1="655.53" y1="699.02" x2="625.03" y2="699.02"/></g><g><path class="cls-5" d="M659.24,701.32c0-20.31,14.6-36.74,32.64-36.74"/><line class="cls-5" x1="690.82" y1="664.58" x2="690.82" y2="699.6"/><line class="cls-5" x1="659.24" y1="699.02" x2="689.75" y2="699.02"/></g><g><path class="cls-5" d="M250.72,1080.32c0-20.31-14.6-36.74-32.64-36.74"/><line class="cls-5" x1="219.14" y1="1043.58" x2="219.14" y2="1078.6"/><line class="cls-5" x1="250.72" y1="1078.02" x2="220.21" y2="1078.02"/></g><g><path class="cls-5" d="M245.53,695.32c0-20.31-14.6-36.74-32.64-36.74"/><line class="cls-5" x1="213.96" y1="658.58" x2="213.96" y2="693.6"/><line class="cls-5" x1="245.53" y1="693.02" x2="215.03" y2="693.02"/></g><line class="cls-8" x1="412.88" y1="587.5" x2="412.88" y2="429.9"/><line class="cls-8" x1="408.63" y1="1081.33" x2="408.63" y2="1020"/><line class="cls-8" x1="453.63" y1="493.5" x2="453.63" y2="455.73"/><line class="cls-8" x1="453.63" y1="565.42" x2="453.63" y2="527.65"/><line class="cls-8" x1="452" y1="566" x2="467" y2="566"/><line class="cls-8" x1="452" y1="456" x2="467" y2="456"/><line class="cls-8" x1="452" y1="494" x2="467" y2="494"/><line class="cls-8" x1="453" y1="529" x2="468" y2="529"/><ellipse class="cls-8" cx="433" cy="476" rx="12" ry="20"/><ellipse class="cls-8" cx="433" cy="547" rx="12" ry="20"/><text class="cls-10" transform="translate(190.06 494.22)"><tspan x="0" y="0">ドレッシングルーム</tspan></text><text/><rect class="cls-11" x="187.5" y="471.78" width="151.52" height="34.22"/><text class="cls-10" transform="translate(235.06 774.54)"><tspan x="0" y="0">廊下</tspan></text><rect class="cls-12" x="211.34" y="752.34" width="86.18" height="33.5"/><line class="cls-8" x1="871.43" y1="990.85" x2="713.82" y2="990.85"/><line class="cls-4" x1="161.02" y1="996.05" x2="318.63" y2="996.05"/><line class="cls-4" x1="161.82" y1="988.85" x2="319.43" y2="988.85"/><text class="cls-10" transform="translate(216.25 1024.54)"><tspan x="0" y="0">エントランス</tspan></text><rect class="cls-7" x="214.5" y="1003.34" width="96" height="33.5"/><g><path class="cls-5" d="M317.15,963.26c20.31,0,36.74-14.6,36.74-32.64"/><line class="cls-5" x1="353.89" y1="931.68" x2="318.87" y2="931.68"/><line class="cls-5" x1="319.44" y1="963.26" x2="319.44" y2="932.75"/></g><text class="cls-10" transform="translate(727.06 1045.54)"><tspan x="0" y="0">客室</tspan></text><rect class="cls-12" x="703.34" y="1023.34" width="86.18" height="33.5"/><line class="cls-8" x1="869.43" y1="750.85" x2="711.82" y2="750.85"/><line class="cls-8" x1="869.43" y1="843.85" x2="711.82" y2="843.85"/><line class="cls-8" x1="870.43" y1="893.85" x2="712.82" y2="893.85"/><line class="cls-4" x1="712.22" y1="845.5" x2="712.22" y2="749.25"/><line class="cls-4" x1="714.52" y1="991.98" x2="714.52" y2="895.73"/><rect class="cls-8" x="817.5" y="853.5" width="46" height="32"/><rect class="cls-8" x="817.5" y="1013.5" width="46" height="32"/><rect class="cls-8" x="817.5" y="710.5" width="46" height="32"/><circle class="cls-8" cx="848" cy="727" r="7.5"/><circle class="cls-8" cx="848" cy="1029" r="7.5"/><circle class="cls-8" cx="848" cy="869" r="7.5"/><line class="cls-4" x1="498.5" y1="700.09" x2="852.82" y2="700.09"/><line class="cls-8" x1="824.82" y1="843.5" x2="824.82" y2="751.09"/><line class="cls-8" x1="822.82" y1="989.5" x2="822.82" y2="894.69"/><rect class="cls-8" x="829.84" y="783.45" width="32.68" height="22.74" transform="translate(51.37 1641) rotate(-90)"/><rect class="cls-8" x="829.84" y="931.52" width="32.68" height="22.74" transform="translate(-96.71 1789.08) rotate(-90)"/><line class="cls-8" x1="582.82" y1="1083.81" x2="582.82" y2="1021"/><line class="cls-8" x1="332" y1="883.89" x2="317.02" y2="883.89"/><line class="cls-8" x1="331.5" y1="775.89" x2="319.08" y2="775.89"/><line class="cls-8" x1="331.82" y1="884.5" x2="331.82" y2="773.97"/><ellipse class="cls-8" cx="417" cy="819.34" rx="30" ry="27.34"/><g><rect class="cls-8" x="449.17" y="766.94" width="19.72" height="25.71" transform="translate(-328.4 333.99) rotate(-30)"/><path class="cls-8" d="M456.17,758.16c1.18-1.7,17.4,2.75,22.37,15.03,3.81,9.43-.22,20.49-2.25,20.51-1.66,.02-1.1-7.34-6.01-17.25-6.16-12.43-15.04-16.95-14.11-18.29Z"/><rect class="cls-8" x="462.65" y="791.42" width="9" height="5" transform="translate(-334.37 339.94) rotate(-30)"/><rect class="cls-8" x="446.3" y="763.44" width="9" height="5" transform="translate(-322.57 328.02) rotate(-30)"/></g><g><rect class="cls-8" x="445.65" y="851.11" width="19.72" height="25.71" transform="translate(552.73 -107.87) rotate(33.51)"/><path class="cls-8" d="M473.6,851.75c2.05,.3,5.3,16.8-3.47,26.72-6.74,7.62-18.44,8.94-19.36,7.13-.76-1.48,6.08-4.26,12.76-13.07,8.37-11.06,8.46-21.02,10.08-20.79Z"/><rect class="cls-8" x="441.99" y="875.02" width="9" height="5" transform="translate(558.72 -100.64) rotate(33.51)"/><rect class="cls-8" x="459.74" y="847.92" width="9" height="5" transform="translate(546.71 -114.95) rotate(33.51)"/></g><line class="cls-8" x1="430.97" y1="1039.02" x2="559" y2="1039.02"/><path class="cls-8" d="M582.33,1021.38c.38-6.46-4.54-12-10.68-12.45-6.47-.47-12.33,4.86-12.39,11.68"/><path class="cls-8" d="M431.33,1020.98c.38-6.46-4.54-12-10.68-12.45-6.47-.47-12.33,4.86-12.39,11.68"/><line class="cls-1" x1="431.8" y1="1039" x2="431.8" y2="1018.87"/><line class="cls-8" x1="559.8" y1="1040" x2="559.8" y2="1018.87"/><ellipse class="cls-8" cx="652.81" cy="563.2" rx="27.34" ry="30" transform="translate(-3.82 4.46) rotate(-.39)"/><g><ellipse class="cls-8" cx="697.32" cy="599.85" rx="11.07" ry="12.15" transform="translate(-219.65 672.28) rotate(-45.22)"/><path class="cls-3" d="M717.12,594.58c-3.73,.47-7.82,1.33-7.85,2.99-.04,1.72,4.3,2.61,8.07,6.05,5.78,5.29,9.31,15.77,5.56,19.99-3.7,4.16-14.3,2.01-19.95-3.25-3.96-3.68-4.83-8.26-7.2-8.36-2.15-.08-3.66,3.62-4.61,6.82"/></g><g><ellipse class="cls-8" cx="604.19" cy="594.4" rx="12.15" ry="11.07" transform="translate(-235.61 708.87) rotate(-52.29)"/><path class="cls-3" d="M611.86,613.41c-.93-3.64-2.28-7.59-3.93-7.43-1.71,.17-2.06,4.59-5.01,8.75-4.53,6.39-14.51,11.19-19.15,7.98-4.58-3.16-3.75-13.94,.76-20.2,3.16-4.38,7.61-5.81,7.4-8.18-.18-2.15-4.04-3.19-7.33-3.74"/></g><line class="cls-4" x1="834.87" y1="699.81" x2="834.87" y2="434"/><line class="cls-4" x1="822.41" y1="700.61" x2="821.4" y2="450.76"/><line class="cls-4" x1="554.22" y1="451.73" x2="820.03" y2="451.73"/><line class="cls-4" x1="539" y1="435.5" x2="835" y2="435.5"/><line class="cls-4" x1="539.55" y1="701.06" x2="539.55" y2="435.25"/><line class="cls-4" x1="552.01" y1="701.86" x2="553.03" y2="452.01"/><g><rect class="cls-13" x="849.53" y="671.53" width="28.95" height="28.95"/><path class="cls-13" d="M877.95,672.05v27.89h-27.89v-27.89h27.89m1.05-1.05h-30v30h30v-30h0Z"/></g><g><rect class="cls-13" x="868.53" y="1056.53" width="28.95" height="28.95"/><path class="cls-13" d="M896.95,1057.05v27.89h-27.89v-27.89h27.89m1.05-1.05h-30v30h30v-30h0Z"/></g><g><rect class="cls-13" x="463.53" y="208.53" width="28.95" height="28.95"/><path class="cls-13" d="M491.95,209.05v27.89h-27.89v-27.89h27.89m1.05-1.05h-30v30h30v-30h0Z"/></g><g><rect class="cls-13" x="135.53" y="208.53" width="28.95" height="28.95"/><path class="cls-13" d="M163.95,209.05v27.89h-27.89v-27.89h27.89m1.05-1.05h-30v30h30v-30h0Z"/></g><g><rect class="cls-13" x="135.53" y="1056.53" width="28.95" height="28.95"/><path class="cls-13" d="M163.95,1057.05v27.89h-27.89v-27.89h27.89m1.05-1.05h-30v30h30v-30h0Z"/></g></svg>