<?xml version="1.0" encoding="UTF-8"?><svg id="_イヤー_1" xmlns="http://www.w3.org/2000/svg" viewBox="0 0 1024 1280"><defs><style>.cls-1{stroke-width:.74px;}.cls-1,.cls-2,.cls-3,.cls-4,.cls-5,.cls-6,.cls-7,.cls-8,.cls-9,.cls-10,.cls-11,.cls-12,.cls-13,.cls-14,.cls-15,.cls-16,.cls-17,.cls-18,.cls-19,.cls-20,.cls-21,.cls-22,.cls-23{stroke:#999;}.cls-1,.cls-3,.cls-4,.cls-5,.cls-6,.cls-7,.cls-8,.cls-9,.cls-10,.cls-13,.cls-14,.cls-15,.cls-16,.cls-17,.cls-18,.cls-19,.cls-20,.cls-21,.cls-22{fill:none;stroke-miterlimit:10;}.cls-2{font-size:16.22px;stroke-width:.88px;}.cls-2,.cls-11,.cls-12,.cls-23{font-family:SourceHanSansJP-Normal-83pv-RKSJ-H, 'Source Han Sans JP';}.cls-3{stroke-width:.77px;}.cls-4,.cls-5{fill-rule:evenodd;}.cls-4,.cls-15{stroke-width:2px;}.cls-5,.cls-16{stroke-width:2px;}.cls-6{stroke-width:3px;}.cls-7{stroke-width:3px;}.cls-8{stroke-width:.8px;}.cls-9{stroke-width:1.66px;}.cls-24{fill:#999;}.cls-10{stroke-width:.85px;}.cls-11{font-size:18.53px;}.cls-12{letter-spacing:-.1em;}.cls-12,.cls-23{font-size:15.75px;}.cls-13{stroke-width:10px;}.cls-14{stroke-width:1.05px;}.cls-18{stroke-width:1.23px;}.cls-19{stroke-width:1.17px;}.cls-20{stroke-width:1.3px;}.cls-21{stroke-width:1.05px;}.cls-22{stroke-width:.97px;}.cls-23{letter-spacing:-.1em;}</style></defs><g><rect class="cls-24" x="101.22" y="400.32" width="26.63" height="26.75"/><path class="cls-24" d="M127.32,400.85v25.69h-25.58v-25.69h25.58m1.05-1.05h-27.68v27.8h27.68v-27.8h0Z"/></g><g><rect class="cls-24" x="97.53" y="1024.87" width="26.63" height="26.75"/><path class="cls-24" d="M123.63,1025.4v25.69h-25.58v-25.69h25.58m1.05-1.05h-27.68v27.8h27.68v-27.8h0Z"/></g><g><rect class="cls-24" x="318.06" y="400.32" width="26.63" height="26.75"/><path class="cls-24" d="M344.16,400.85v25.69h-25.58v-25.69h25.58m1.05-1.05h-27.68v27.8h27.68v-27.8h0Z"/></g><g><rect class="cls-24" x="450.94" y="400.32" width="26.63" height="26.75"/><path class="cls-24" d="M477.04,400.85v25.69h-25.58v-25.69h25.58m1.05-1.05h-27.68v27.8h27.68v-27.8h0Z"/></g><g><rect class="cls-24" x="655.79" y="400.32" width="26.63" height="26.75"/><path class="cls-24" d="M681.89,400.85v25.69h-25.58v-25.69h25.58m1.05-1.05h-27.68v27.8h27.68v-27.8h0Z"/></g><g><rect class="cls-24" x="297.76" y="1026.73" width="26.63" height="26.75"/><path class="cls-24" d="M323.86,1027.25v25.69h-25.58v-25.69h25.58m1.05-1.05h-27.68v27.8h27.68v-27.8h0Z"/></g><g><rect class="cls-24" x="471.24" y="1013.75" width="26.63" height="26.75"/><path class="cls-24" d="M497.34,1014.28v25.69h-25.58v-25.69h25.58m1.05-1.05h-27.68v27.8h27.68v-27.8h0Z"/></g><g><rect class="cls-24" x="655.79" y="1013.75" width="26.63" height="26.75"/><path class="cls-24" d="M681.89,1014.28v25.69h-25.58v-25.69h25.58m1.05-1.05h-27.68v27.8h27.68v-27.8h0Z"/></g><g><rect class="cls-24" x="655.79" y="801.56" width="26.63" height="26.75"/><path class="cls-24" d="M681.89,802.08v25.69h-25.58v-25.69h25.58m1.05-1.05h-27.68v27.8h27.68v-27.8h0Z"/></g><g><rect class="cls-24" x="915.08" y="801.56" width="26.63" height="26.75"/><path class="cls-24" d="M941.18,802.08v25.69h-25.58v-25.69h25.58m1.05-1.05h-27.68v27.8h27.68v-27.8h0Z"/></g><g><rect class="cls-24" x="917.84" y="1023.95" width="26.63" height="26.75"/><path class="cls-24" d="M943.95,1024.47v25.69h-25.58v-25.69h25.58m1.05-1.05h-27.68v27.8h27.68v-27.8h0Z"/></g><line class="cls-13" x1="115.46" y1="424.82" x2="115.46" y2="1028.05"/><line class="cls-6" x1="118.4" y1="414.72" x2="365.06" y2="414.72"/><text class="cls-23" transform="translate(135.55 302.3)"><tspan x="0" y="0">バルコニー</tspan></text><rect class="cls-22" x="130.28" y="281.74" width="79.52" height="31.04"/><g><path class="cls-9" d="M210.74,417.3c0-18.82-13.47-34.04-30.12-34.04"/><line class="cls-9" x1="181.6" y1="383.26" x2="181.6" y2="415.7"/><line class="cls-9" x1="210.74" y1="415.17" x2="182.59" y2="415.17"/></g><line class="cls-7" x1="670.17" y1="1020.18" x2="670.17" y2="734.78"/><line class="cls-7" x1="426.14" y1="414.72" x2="513.62" y2="414.72"/><line class="cls-17" x1="365.24" y1="414.17" x2="432.42" y2="414.16"/><line class="cls-17" x1="393.15" y1="416.02" x2="427.8" y2="416.02"/><line class="cls-17" x1="397.53" y1="422.5" x2="397.53" y2="407.67"/><line class="cls-7" x1="670.17" y1="600.41" x2="670.17" y2="418.57"/><line class="cls-17" x1="669.9" y1="739.41" x2="669.9" y2="596.71"/><line class="cls-17" x1="661.72" y1="668.06" x2="676.48" y2="668.06"/><line class="cls-6" x1="682.94" y1="410.45" x2="932.54" y2="410.45"/><line class="cls-7" x1="668.64" y1="815.39" x2="923.78" y2="815.39"/><line class="cls-13" x1="123.76" y1="1029.91" x2="676.48" y2="1029.91"/><g><path class="cls-9" d="M537.31,1029.3c0-18.82-13.47-34.04-30.12-34.04"/><line class="cls-9" x1="508.17" y1="995.26" x2="508.17" y2="1027.71"/><line class="cls-9" x1="537.31" y1="1027.17" x2="509.16" y2="1027.17"/></g><line class="cls-7" x1="485.01" y1="1020.64" x2="485.01" y2="899.72"/><line class="cls-7" x1="311.54" y1="901.39" x2="484.8" y2="901.39"/><line class="cls-7" x1="118.09" y1="902.06" x2="321.69" y2="901.57"/><line class="cls-7" x1="369.46" y1="1024.17" x2="369.46" y2="903.25"/><g><path class="cls-9" d="M465.34,902.57c0-18.82-13.47-34.04-30.12-34.04"/><line class="cls-9" x1="436.2" y1="868.53" x2="436.2" y2="900.97"/><line class="cls-9" x1="465.34" y1="900.44" x2="437.19" y2="900.44"/></g><g><path class="cls-16" d="M389,919.57c28.05,0,50.76,9.57,50.76,21.41"/><path class="cls-16" d="M389,962.41c28.05,0,50.76-9.57,50.76-21.41"/><line class="cls-16" x1="389.12" y1="919.5" x2="389.12" y2="962.69"/></g><line class="cls-16" x1="388.41" y1="955.43" x2="371.12" y2="955.43"/><path class="cls-16" d="M396.03,963.27c0,5.13-11.32,9.28-25.31,9.28"/><text id="_室" class="cls-11" transform="translate(418.42 1004.56)"><tspan x="0" y="0">WC</tspan></text><rect class="cls-3" x="400.88" y="985.89" width="63.64" height="24.09"/><line class="cls-16" x1="387.33" y1="926.65" x2="370.04" y2="926.65"/><g><path class="cls-9" d="M313.37,899.9c0,18.82,13.47,34.04,30.12,34.04"/><line class="cls-9" x1="342.5" y1="933.95" x2="342.5" y2="901.5"/><line class="cls-9" x1="313.37" y1="902.03" x2="341.52" y2="902.03"/></g><line class="cls-16" x1="141.42" y1="972.01" x2="286.85" y2="972.01"/><line class="cls-16" x1="228.16" y1="1012.55" x2="263.01" y2="1012.55"/><line class="cls-16" x1="161.8" y1="1013.48" x2="196.65" y2="1013.48"/><line class="cls-16" x1="161.59" y1="1011.37" x2="161.59" y2="1025.27"/><line class="cls-16" x1="262.76" y1="1011.04" x2="262.76" y2="1024.94"/><line class="cls-16" x1="227.7" y1="1011.04" x2="227.7" y2="1024.94"/><line class="cls-16" x1="195.4" y1="1011.97" x2="195.4" y2="1025.87"/><ellipse class="cls-16" cx="244.31" cy="990.66" rx="18.45" ry="11.12"/><ellipse class="cls-16" cx="178.79" cy="990.66" rx="18.45" ry="11.12"/><text class="cls-23" transform="translate(127.77 946.97)"><tspan x="0" y="0">ドレッシングルーム</tspan></text><text/><rect class="cls-20" x="125.41" y="926.19" width="139.82" height="31.71"/><line class="cls-16" x1="288.01" y1="1025.27" x2="288.01" y2="970.6"/><line class="cls-16" x1="143.14" y1="1026.2" x2="143.14" y2="971.53"/><line class="cls-7" x1="333.43" y1="610.61" x2="333.43" y2="403.18"/><line class="cls-7" x1="332.02" y1="611.66" x2="466.61" y2="611.66"/><line class="cls-7" x1="468.45" y1="613.39" x2="468.45" y2="403.17"/><ellipse class="cls-16" cx="398.51" cy="466.98" rx="20.53" ry="29.65"/><ellipse class="cls-16" cx="398.18" cy="467.7" rx="23.16" ry="40.11"/><line class="cls-7" x1="331.96" y1="541.17" x2="386.28" y2="541.17"/><g><path class="cls-9" d="M334.66,567.48c-18.74,0-33.9,13.53-33.9,30.25"/><line class="cls-9" x1="300.76" y1="596.74" x2="333.07" y2="596.74"/><line class="cls-9" x1="332.54" y1="567.48" x2="332.54" y2="595.75"/></g><g><path class="cls-9" d="M672.18,929.73c-18.74,0-33.9,13.53-33.9,30.25"/><line class="cls-9" x1="638.28" y1="958.99" x2="670.59" y2="958.99"/><line class="cls-9" x1="670.06" y1="929.73" x2="670.06" y2="957.99"/></g><line class="cls-7" x1="386.85" y1="612.46" x2="386.85" y2="540.18"/><g><path class="cls-9" d="M387.98,565.35c-18.74,0-33.9,13.53-33.9,30.25"/><line class="cls-9" x1="354.08" y1="594.6" x2="386.39" y2="594.6"/><line class="cls-9" x1="385.86" y1="565.35" x2="385.86" y2="593.61"/></g><text id="_室-2" class="cls-2" transform="translate(409.43 535.69)"><tspan x="0" y="0">浴室</tspan></text><rect class="cls-10" x="392.7" y="516.07" width="69.6" height="27.17"/><g><line class="cls-18" x1="467.02" y1="568.91" x2="467.02" y2="552.49"/><line class="cls-18" x1="462.71" y1="566.38" x2="462.71" y2="555.15"/><line class="cls-18" x1="466.85" y1="568.45" x2="462.69" y2="565.79"/><line class="cls-18" x1="463.13" y1="555.41" x2="467.23" y2="551.73"/></g><path class="cls-14" d="M462.93,562.89c-6.64-.15-6.53,7.28-6.53,7.28"/><g><path class="cls-1" d="M450.54,576.03c0-3.72,2.92-6.74,6.52-6.74"/><path class="cls-1" d="M463.12,576.09c0-3.72-2.92-6.74-6.52-6.74"/><line class="cls-1" x1="450.41" y1="576.32" x2="463.33" y2="576.32"/></g><line class="cls-7" x1="763.18" y1="852.46" x2="763.18" y2="813.08"/><line class="cls-6" x1="681.1" y1="420.65" x2="920.09" y2="420.65"/><line class="cls-6" x1="919.62" y1="808.91" x2="919.62" y2="419.26"/><line class="cls-6" x1="931.85" y1="805.2" x2="931.85" y2="410.45"/><line class="cls-7" x1="674.18" y1="1026.66" x2="917.78" y2="1026.66"/><g><line class="cls-7" x1="932.54" y1="1027.59" x2="931.62" y2="820.49"/><line class="cls-7" x1="921.24" y1="1034.89" x2="920.32" y2="827.79"/></g><line class="cls-7" x1="674.18" y1="1035" x2="920.55" y2="1034.19"/><line class="cls-6" x1="675.31" y1="406.84" x2="675.31" y2="252.46"/><line class="cls-6" x1="664.9" y1="411.96" x2="664.05" y2="266.84"/><line class="cls-6" x1="674.18" y1="253.16" x2="109.46" y2="253.16"/><line class="cls-6" x1="663.69" y1="267.61" x2="120.53" y2="267.61"/><line class="cls-7" x1="120.11" y1="406.07" x2="120.11" y2="265.9"/><line class="cls-7" x1="109.7" y1="411.18" x2="109.7" y2="252"/><line class="cls-7" x1="756.03" y1="740.34" x2="756.03" y2="420.67"/><line class="cls-7" x1="755.38" y1="740.59" x2="918.79" y2="740.59"/><text class="cls-12" transform="translate(827.84 475.51)"><tspan x="0" y="0">プール</tspan></text><rect class="cls-22" x="809.65" y="454.94" width="79.52" height="31.04"/><text class="cls-12" transform="translate(699.58 780.37)"><tspan x="0" y="0">バルコニー</tspan></text><rect class="cls-22" x="694.3" y="759.8" width="79.52" height="31.04"/><g><rect class="cls-16" x="817.65" y="798.9" width="8.17" height="6.45" rx="1.5" ry="1.5"/><path class="cls-16" d="M815.41,757.88h11.33c1.1,0,2,.9,2,2v29.06h-15.33v-29.06c0-1.1,.9-2,2-2Z"/><path class="cls-16" d="M813.41,788.45h15.33v8.45c0,1.1-.9,2-2,2h-11.33c-1.1,0-2-.9-2-2v-8.45h0Z"/></g><g><rect class="cls-16" x="871.41" y="798.9" width="8.17" height="6.45" rx="1.5" ry="1.5"/><path class="cls-16" d="M869.17,757.88h11.33c1.1,0,2,.9,2,2v29.06h-15.33v-29.06c0-1.1,.9-2,2-2Z"/><path class="cls-16" d="M867.17,788.45h15.33v8.45c0,1.1-.9,2-2,2h-11.33c-1.1,0-2-.9-2-2v-8.45h0Z"/></g><line class="cls-7" x1="824.32" y1="1024.81" x2="824.32" y2="816.82"/><text class="cls-12" transform="translate(843.35 884.41)"><tspan x="0" y="0">露天風呂</tspan></text><rect class="cls-22" x="832.54" y="863.84" width="79.52" height="31.04"/><line class="cls-7" x1="400.28" y1="898.79" x2="400.28" y2="610.16"/><g><path class="cls-9" d="M401.4,850.38c-18.74,0-33.9,13.53-33.9,30.25"/><line class="cls-9" x1="367.5" y1="879.64" x2="399.81" y2="879.64"/><line class="cls-9" x1="399.28" y1="850.38" x2="399.28" y2="878.65"/></g><g><path class="cls-9" d="M401.49,848.97c-18.74,0-33.9-13.53-33.9-30.25"/><line class="cls-9" x1="367.59" y1="819.71" x2="399.9" y2="819.71"/><line class="cls-9" x1="399.37" y1="848.97" x2="399.37" y2="820.7"/></g><text class="cls-23" transform="translate(225.36 754.07)"><tspan x="0" y="0">寝室</tspan></text><rect class="cls-22" x="204.4" y="733.51" width="79.52" height="31.04"/><rect class="cls-19" x="533.92" y="857.68" width="116.27" height="31.04"/><text class="cls-12" transform="translate(542.46 879.07)"><tspan x="0" y="0">リビングルーム</tspan></text><line class="cls-7" x1="484.71" y1="971.89" x2="648.34" y2="971.89"/><line class="cls-7" x1="646.5" y1="1025.74" x2="646.5" y2="969.97"/><text class="cls-12" transform="translate(542.11 1006.24)"><tspan x="0" y="0">エントランス</tspan></text><rect class="cls-21" x="540.53" y="984.74" width="92.12" height="31.04"/><line class="cls-17" x1="762.57" y1="994.84" x2="762.57" y2="852.14"/><line class="cls-17" x1="754.38" y1="923.49" x2="769.15" y2="923.49"/><line class="cls-7" x1="763.18" y1="1029.36" x2="763.18" y2="989.98"/><line class="cls-16" x1="115.22" y1="709.59" x2="260.64" y2="709.59"/><line class="cls-16" x1="117.06" y1="487.2" x2="262.49" y2="487.2"/><line class="cls-16" x1="117.06" y1="573.38" x2="262.49" y2="573.38"/><line class="cls-16" x1="116.14" y1="619.71" x2="261.57" y2="619.71"/><line class="cls-16" x1="262.12" y1="574.9" x2="262.12" y2="485.72"/><line class="cls-16" x1="260" y1="710.63" x2="260" y2="621.45"/><rect class="cls-16" x="122.53" y="582.32" width="42.45" height="29.65" transform="translate(287.51 1194.28) rotate(180)"/><rect class="cls-16" x="122.53" y="730.58" width="42.45" height="29.65" transform="translate(287.51 1490.81) rotate(180)"/><rect class="cls-16" x="122.53" y="449.81" width="42.45" height="29.65" transform="translate(287.51 929.27) rotate(180)"/><ellipse class="cls-16" cx="136.83" cy="465.1" rx="6.92" ry="6.95"/><ellipse class="cls-16" cx="136.83" cy="744.94" rx="6.92" ry="6.95"/><ellipse class="cls-16" cx="136.83" cy="596.68" rx="6.92" ry="6.95"/><line class="cls-16" x1="158.22" y1="573.05" x2="158.22" y2="487.42"/><line class="cls-16" x1="160.07" y1="708.34" x2="160.07" y2="620.48"/><rect class="cls-16" x="123.36" y="517.45" width="30.28" height="20.98" transform="translate(-389.43 666.44) rotate(-90)"/><rect class="cls-16" x="123.36" y="654.66" width="30.28" height="20.98" transform="translate(-526.64 803.66) rotate(-90)"/><ellipse class="cls-16" cx="211.27" cy="819.79" rx="27.75" ry="25.26" transform="translate(-568.96 491.26) rotate(-52.71)"/><g><polygon class="cls-5" points="202.56 880.35 205.26 862.27 228.72 865.81 226.02 883.88 202.56 880.35"/><path class="cls-16" d="M232.91,883.49c.55,1.84-11.99,11.03-23.71,7.54-9-2.68-14.67-11.99-13.51-13.48,.94-1.21,5.93,3.45,15.9,5.6,12.51,2.71,20.88-1.11,21.31,.34Z"/><polygon class="cls-16" points="197.89 874.59 199.12 866.34 203.69 867.03 202.45 875.28 197.89 874.59"/><polygon class="cls-16" points="227.48 878.89 228.71 870.65 233.28 871.33 232.04 879.58 227.48 878.89"/></g><g><polygon class="cls-5" points="144.61 813.42 161.92 807.78 169.23 830.45 151.92 836.08 144.61 813.42"/><path class="cls-16" d="M155.34,842.1c-1.39,1.31-15.18-5.86-17.29-17.95-1.62-9.28,4.14-18.53,5.98-18.15,1.5,.31-.42,6.87,2.1,16.79,3.17,12.45,10.31,18.27,9.21,19.31Z"/><polygon class="cls-16" points="147.65 806.65 155.56 804.08 156.98 808.49 149.08 811.06 147.65 806.65"/><polygon class="cls-16" points="157.02 835.17 164.92 832.6 166.34 837 158.44 839.57 157.02 835.17"/></g><line class="cls-8" x1="603.59" y1="415.08" x2="511.78" y2="415.08"/><line class="cls-8" x1="557.68" y1="423.3" x2="557.68" y2="408.47"/><line class="cls-7" x1="603.12" y1="415.09" x2="679.17" y2="414.96"/><ellipse class="cls-16" cx="500.76" cy="705.29" rx="25.38" ry="23.17" transform="translate(-1.31 .93) rotate(-.11)"/><g><rect class="cls-16" x="428.63" y="616.94" width="141.04" height="9.43" rx="4.71" ry="4.71" transform="translate(-1.11 .89) rotate(-.1)"/><rect class="cls-16" x="419.49" y="642.14" width="40.06" height="9.23" rx="4.61" ry="4.61" transform="translate(1085.49 206.09) rotate(89.9)"/><rect class="cls-16" x="541.99" y="642.21" width="40.06" height="9.23" rx="4.61" ry="4.61" transform="translate(1207.84 83.66) rotate(89.9)"/><line class="cls-16" x1="521.38" y1="627.99" x2="521.43" y2="656.44"/><line class="cls-16" x1="443.92" y1="656.9" x2="556.23" y2="656.7"/><line class="cls-16" x1="478.93" y1="627.18" x2="478.99" y2="655.64"/></g><g><rect class="cls-16" x="429.01" y="782.1" width="141.04" height="9.43" rx="4.71" ry="4.71" transform="translate(-1.4 .89) rotate(-.1)"/><rect class="cls-16" x="419.78" y="757.31" width="40.06" height="9.23" rx="4.61" ry="4.61" transform="translate(-321.34 1203.08) rotate(-90.1)"/><rect class="cls-16" x="542.27" y="756.8" width="40.06" height="9.23" rx="4.61" ry="4.61" transform="translate(-198.12 1325.07) rotate(-90.1)"/><line class="cls-16" x1="521.74" y1="780.39" x2="521.69" y2="751.94"/><line class="cls-16" x1="444.17" y1="751.76" x2="556.48" y2="751.56"/><line class="cls-16" x1="479.29" y1="781.35" x2="479.24" y2="752.9"/></g><rect class="cls-16" x="527.67" y="497.11" width="83.86" height="43.99" transform="translate(50.5 1088.7) rotate(-90)"/><line class="cls-16" x1="413.16" y1="759.32" x2="399.34" y2="759.32"/><line class="cls-16" x1="412.7" y1="659.24" x2="401.24" y2="659.24"/><line class="cls-16" x1="412.99" y1="759.88" x2="412.99" y2="657.46"/><g><rect class="cls-16" x="592.93" y="487.41" width="27.34" height="19.21" transform="translate(109.58 1103.62) rotate(-90)"/><rect class="cls-16" x="605.14" y="493.18" width="29.8" height="7.68" transform="translate(123.03 1117.06) rotate(-90)"/></g><g><rect class="cls-16" x="517.11" y="487.65" width="27.34" height="19.21" transform="translate(33.53 1028.04) rotate(-90)"/><rect class="cls-16" x="502.43" y="493.42" width="29.8" height="7.68" transform="translate(20.08 1014.59) rotate(-90)"/></g><g><rect class="cls-16" x="517.11" y="487.65" width="27.34" height="19.21" transform="translate(33.53 1028.04) rotate(-90)"/><rect class="cls-16" x="502.43" y="493.42" width="29.8" height="7.68" transform="translate(20.08 1014.59) rotate(-90)"/></g><g><rect class="cls-16" x="517.11" y="487.65" width="27.34" height="19.21" transform="translate(33.53 1028.04) rotate(-90)"/><rect class="cls-16" x="502.43" y="493.42" width="29.8" height="7.68" transform="translate(20.08 1014.59) rotate(-90)"/></g><g><rect class="cls-16" x="592.61" y="529.35" width="27.34" height="19.21" transform="translate(67.33 1145.24) rotate(-90)"/><rect class="cls-16" x="604.83" y="535.12" width="29.8" height="7.68" transform="translate(80.77 1158.69) rotate(-90)"/></g><g><rect class="cls-16" x="517.5" y="529.35" width="27.34" height="19.21" transform="translate(-7.79 1070.12) rotate(-90)"/><rect class="cls-16" x="502.82" y="535.12" width="29.8" height="7.68" transform="translate(-21.24 1056.68) rotate(-90)"/></g><g><rect class="cls-16" x="517.5" y="529.35" width="27.34" height="19.21" transform="translate(-7.79 1070.12) rotate(-90)"/><rect class="cls-16" x="502.82" y="535.12" width="29.8" height="7.68" transform="translate(-21.24 1056.68) rotate(-90)"/></g><g><rect class="cls-16" x="517.5" y="529.35" width="27.34" height="19.21" transform="translate(-7.79 1070.12) rotate(-90)"/><rect class="cls-16" x="502.82" y="535.12" width="29.8" height="7.68" transform="translate(-21.24 1056.68) rotate(-90)"/></g><ellipse class="cls-15" cx="299.56" cy="322.51" rx="25.22" ry="27.8" transform="translate(-2.1 1.96) rotate(-.37)"/><g><ellipse class="cls-15" cx="339.71" cy="355.54" rx="10.24" ry="11.23" transform="translate(-151.61 335.08) rotate(-43.92)"/><path class="cls-4" d="M357.98,350.65c-3.44,.44-7.21,1.23-7.25,2.77-.04,1.59,3.97,2.42,7.44,5.61,5.34,4.9,8.59,14.62,5.13,18.52-3.41,3.85-13.19,1.86-18.41-3.01-3.65-3.41-4.46-7.66-6.64-7.74-1.99-.08-3.38,3.35-4.25,6.32"/></g><g><ellipse class="cls-15" cx="254.69" cy="351.42" rx="11.24" ry="10.23" transform="translate(-179.3 347.4) rotate(-53.54)"/><path class="cls-4" d="M261.77,369.03c-.85-3.37-2.1-7.04-3.63-6.88-1.58,.16-1.9,4.25-4.63,8.11-4.18,5.92-13.39,10.36-17.67,7.4-4.23-2.93-3.46-12.92,.71-18.72,2.92-4.06,7.02-5.39,6.83-7.58-.17-1.99-3.73-2.95-6.77-3.46"/></g><line class="cls-6" x1="639.43" y1="1032.44" x2="639.43" y2="976.67"/><line class="cls-6" x1="485.01" y1="978.61" x2="639.11" y2="978.61"/></svg>