<?xml version="1.0" encoding="UTF-8"?><svg id="_イヤー_2" xmlns="http://www.w3.org/2000/svg" viewBox="0 0 100 100"><defs><style>.cls-1{letter-spacing:.1em;}.cls-2{letter-spacing:.1em;}.cls-3{fill:#f2e975;}.cls-4,.cls-5,.cls-6{fill:#cec521;}.cls-7{fill:#1a1a1a;}.cls-8{letter-spacing:.08em;}.cls-9{letter-spacing:.08em;}.cls-10{letter-spacing:.2em;}.cls-5{stroke:#f2e975;stroke-miterlimit:10;}.cls-11{letter-spacing:.06em;}.cls-12{letter-spacing:.16em;}.cls-13{letter-spacing:.16em;}.cls-14{letter-spacing:.12em;}.cls-15{letter-spacing:.12em;}.cls-16{fill:#fff;font-size:9px;}.cls-16,.cls-6{font-family:Apple-Chancery, 'Apple Chancery';}.cls-6{font-size:15px;}</style></defs><g id="logo-200"><g><rect class="cls-7" width="100" height="100"/><text class="cls-6" transform="translate(26.76 61.72) scale(.93 1)"><tspan class="cls-10" x="0" y="0">D</tspan><tspan class="cls-12" x="15.65" y="0">oa</tspan><tspan class="cls-10" x="34.58" y="0">r</tspan><tspan x="43.83" y="0">i</tspan></text><text class="cls-16" transform="translate(31.2 73.9)"><tspan class="cls-2" x="0" y="0">O</tspan><tspan class="cls-8" x="7.07" y="0">k</tspan><tspan class="cls-2" x="11.95" y="0">ina</tspan><tspan class="cls-15" x="27.01" y="0">w</tspan><tspan x="33.74" y="0">a</tspan></text><text class="cls-16" transform="translate(21.77 86.46)"><tspan class="cls-15" x="0" y="0">R</tspan><tspan class="cls-2" x="8.16" y="0">e</tspan><tspan class="cls-8" x="12.41" y="0">s</tspan><tspan class="cls-11" x="16.33" y="0">o</tspan><tspan class="cls-9" x="20.73" y="0">r</tspan><tspan class="cls-13" x="25.19" y="0">t</tspan><tspan class="cls-14" x="29.82" y="0"> </tspan><tspan class="cls-9" x="33.4" y="0">H</tspan><tspan class="cls-11" x="41.74" y="0">ot</tspan><tspan class="cls-1" x="49.87" y="0">e</tspan><tspan x="54.11" y="0">l</tspan></text><g><g><polygon class="cls-5" points="36.68 37.53 49.65 43.93 50.47 42.6 37.5 36.2 36.68 37.53"/><g><g><path class="cls-4" d="M35.06,34.03c-.58-.21-1.08-.49-1.49-.81l-.85-2.9c-.44-1.79-1.45-3.12-1.98-3.77l.32-.19c.39-.23,.88-.35,1.45-.35,1.43,0,2.98,.74,3.57,1.23,1.66,1.79,2.48,4.21,2.2,6.59l-.15,1.32-3.07-1.12Z"/><path class="cls-3" d="M32.5,26.51c1.22,0,2.62,.62,3.21,1.08,1.58,1.72,2.33,3.97,2.07,6.18l-.08,.69-2.47-.9c-.47-.17-.89-.39-1.23-.64l-.79-2.71c-.38-1.54-1.14-2.75-1.72-3.52,.28-.12,.62-.18,1.01-.18m0-1c-.61,0-1.19,.12-1.7,.41l-.81,.47c-.09,.05,1.64,1.57,2.24,4.05l.89,3.05c.5,.44,1.11,.76,1.76,1l3.41,1.24s.05,.01,.08,.01c.1,0,.19-.07,.21-.18l.2-1.69c.29-2.52-.58-5.1-2.38-7.03h0c-.71-.59-2.36-1.35-3.89-1.35h0Zm-.6,6.11s.38,2.35,2.01,4.54l-.78-2.66c-.55-.48-.98-1.09-1.23-1.88h0Z"/></g><ellipse class="cls-5" cx="30.62" cy="29.76" rx=".45" ry="3.85" transform="translate(-11.71 35.34) rotate(-51.69)"/><ellipse class="cls-5" cx="29.67" cy="32.8" rx=".5" ry="5.49" transform="translate(-14.46 35.73) rotate(-51.67)"/><ellipse class="cls-5" cx="27.62" cy="34.74" rx=".5" ry="5.49" transform="translate(-16.76 34.86) rotate(-51.67)"/><g><path class="cls-4" d="M28.79,39.72c-1.56,0-3.1-.41-4.46-1.17l-1.1-.62,.61-.55c2.04-1.83,4.67-2.83,7.4-2.83,.17,0,.35,0,.52,.01l2.94,.14,.29,3.57-3.62,1.08c-.84,.25-1.71,.38-2.58,.38h0Z"/><path class="cls-3" d="M31.23,35.05c.17,0,.33,0,.5,.01l2.5,.12,.22,2.73-3.23,.96c-.79,.24-1.61,.35-2.44,.35-1.47,0-2.93-.38-4.21-1.11l-.49-.28,.09-.08c1.95-1.74,4.45-2.7,7.07-2.7m0-1c-2.85,0-5.6,1.05-7.73,2.96l-1.13,1.01,1.71,.97c1.45,.82,3.07,1.24,4.71,1.24,.91,0,1.83-.13,2.72-.4l4.01-1.19-.36-4.41-3.38-.16c-.18,0-.36-.01-.54-.01h0Z"/></g><g><path class="cls-4" d="M33.8,43.15c-.38,0-.75-.07-1.1-.21l-3.73-1.44,3.27-3.13c.36-.35,.83-.55,1.33-.58l7.11-.4,.31,1.71c.16,.86-.33,1.71-1.15,2.01l-4.99,1.84c-.34,.13-.69,.19-1.05,.19h0Z"/><path class="cls-3" d="M40.27,37.91l.23,1.28c.11,.62-.24,1.24-.83,1.46l-4.99,1.84c-.28,.1-.58,.16-.88,.16s-.62-.06-.92-.17l-3-1.16,2.7-2.59c.27-.26,.63-.42,1.01-.44l6.67-.37m.83-1.05l-7.55,.42c-.62,.03-1.2,.29-1.65,.72l-3.83,3.68,4.47,1.73c.41,.16,.84,.24,1.28,.24s.83-.07,1.23-.22l4.99-1.84c1.05-.39,1.67-1.47,1.47-2.57l-.39-2.15h0Z"/></g><g><path class="cls-4" d="M37.34,38.71c-.11,0-.22,0-.33-.02l-2.35-.27c-2.34-.27-4.4-1.56-5.65-3.56l-1.03-1.64,3.65-1.31c.58-.21,1.19-.32,1.81-.32,.87,0,1.74,.22,2.51,.62l4.89,2.6-.86,2.11c-.44,1.08-1.48,1.78-2.65,1.78Z"/><path class="cls-3" d="M33.45,32.1c.79,0,1.58,.2,2.28,.57l4.49,2.38-.69,1.69c-.36,.89-1.22,1.47-2.19,1.47-.09,0-.18,0-.27-.02l-2.35-.27c-2.19-.25-4.11-1.46-5.28-3.33l-.7-1.11,3.07-1.1c.53-.19,1.08-.29,1.64-.29m0-1c-.67,0-1.34,.11-1.98,.35l-4.23,1.52,1.36,2.16c1.32,2.11,3.54,3.51,6.01,3.79l2.35,.27c.13,.01,.26,.02,.38,.02,1.35,0,2.59-.82,3.11-2.09l1.03-2.52-5.29-2.81c-.85-.45-1.8-.68-2.74-.68h0Z"/></g><g><path class="cls-4" d="M38.45,35.68c-.08,0-.17-.04-.2-.12l-1.36-4.62c-.02-.06-.04-.12-.06-.17-.5-2.23-.42-3.67,1.37-4.7l1.55-.87-.46,3.02c-.12,.77-.11,1.53,.02,2.29l.78,4.46c.02,.1-.06,.2-.19,.24l-1.36,.45s-.07,.02-.1,.02Z"/><path class="cls-3" d="M39.1,26.14l-.31,2.01c-.13,.82-.12,1.64,.02,2.45l.74,4.21-.92,.3-1.27-4.3c-.02-.08-.05-.15-.09-.22-.44-2.01-.38-3.2,1.16-4.08l.66-.37m1.3-1.88l-2.45,1.37c-2.24,1.29-2.06,3.24-1.64,5.16,.02,.1,.07,.19,.1,.29l1.36,4.62c.09,.29,.37,.48,.68,.48,.08,0,.17-.01,.26-.04l1.36-.45c.36-.12,.58-.46,.52-.8l-.78-4.46c-.12-.7-.13-1.41-.02-2.12l.62-4.03h0Z"/></g><g><path class="cls-4" d="M38.91,34.66c.01-.21,.06-1.01,.08-1.2l.25-.85c.04-.09,.21-.92,.29-1.44l.44,.36c.93,.61,1.54,1.55,1.67,2.58,.02,.19,.07,.37,.14,.57l.17,2.46-1.86,.48-1.18-2.97Z"/><path class="cls-3" d="M39.87,32.08c.71,.53,1.17,1.28,1.27,2.1,.02,.19,.07,.39,.14,.6l.14,1.95-1.03,.29-.96-2.42c.01-.29,.04-.83,.06-1.04l.23-.81h0c.05-.17,.11-.42,.16-.67m-.37-1.36c-.22,0-.44,.15-.47,.38-.09,.63-.25,1.32-.27,1.37l-.25,.87s-.01,.05-.01,.07c-.02,.2-.06,1.02-.07,1.29,0,.05,0,.1,.03,.15l1.31,3.28s.07,.07,.11,.07c.01,0,.03,0,.04,0l2.17-.61h.02c.22-.05,.37-.26,.35-.46l-.18-2.49s-.01-.07-.02-.1c-.07-.19-.1-.34-.12-.47-.15-1.2-.86-2.25-1.9-2.93l-.5-.33c-.08-.05-.16-.07-.25-.07h0Z"/></g><g><path class="cls-4" d="M40.3,38.91c-1.44-.93-2.5-2.35-3-3.99l.22,.04c1.7,.32,3.27,1.23,4.4,2.54l1.23,1.43-1.11,1.1-1.74-1.13Z"/><path class="cls-3" d="M38.09,35.61c1.33,.39,2.53,1.16,3.44,2.21l.93,1.08-.49,.49-1.4-.91c-1.09-.7-1.95-1.7-2.48-2.87m-1.51-1.34l.23,.76c.52,1.77,1.66,3.29,3.21,4.29l2.08,1.34,1.73-1.71-1.54-1.78c-1.21-1.4-2.86-2.36-4.68-2.7l-1.02-.19h0Z"/></g><g><path class="cls-4" d="M42.19,40.98c-.48,0-.96-.13-1.38-.37l-.32-.18h0c.66-1,1.77-1.61,2.96-1.64l.66-.02,.33,1.42-1,.5c-.38,.19-.81,.29-1.24,.29h0Z"/><path class="cls-3" d="M43.71,39.28l.15,.64-.65,.32c-.32,.16-.67,.24-1.02,.24-.33,0-.65-.07-.95-.2,.57-.61,1.37-.97,2.22-.99h.25m.79-1.03l-1.07,.03c-1.36,.03-2.61,.73-3.37,1.86l-.3,.45,.79,.45c.5,.29,1.07,.43,1.63,.43,.5,0,1-.11,1.46-.34l1.36-.67-.5-2.21h0Z"/></g><g><path class="cls-4" d="M43.96,38.78l-.06-.04c-.61-.46-1.05-1.02-1.39-1.49-.27-.37-.34-.84-.22-1.29l.36-1.26c.27,.08,.59,.21,.67,.26l1.4,.75c.15,.08,.27,.2,.35,.34,.04,.08,.08,.15,.09,.18l.72,2.65s0,.03,0,.05l-1.11,.67-.81-.81Z"/><path class="cls-3" d="M42.99,35.35s.06,.02,.08,.03h0l.05,.03,1.38,.73c.07,.03,.12,.08,.15,.14,.02,.04,.04,.07,.05,.1l.63,2.3-.47,.28-.49-.49-.06-.05-.05-.04c-.6-.45-.99-.95-1.33-1.41-.18-.25-.23-.56-.14-.87l.21-.74m-.63-1.22s-.07,.03-.08,.06l-.46,1.63c-.17,.6-.06,1.23,.29,1.72,.33,.46,.8,1.07,1.54,1.63h0l1.04,1.04,1.66-.99s.04-.05,.04-.08c-.03-.26,0-.33-.02-.41l-.74-2.71s-.06-.11-.12-.22c-.12-.23-.32-.41-.55-.54l-1.38-.73c-.1-.07-.8-.35-1.22-.4h0Zm2.07,6.06s.02,.01,.06,.05c-.03-.03-.05-.05-.06-.05h0Zm.27,.03l-.13,.08c.14,.11,.41,.32,.88,.67l-.75-.75h0Zm-.21,.02s.04,.04,.07,.06h0s-.06-.05-.07-.06h0Z"/></g><g><path class="cls-4" d="M44.56,41.82c-.1,0-.2-.02-.3-.04l-1.33-.4,.57-1.5c.06-.15,.18-.26,.33-.29l1.5-.35c.08-.02,.16-.03,.24-.03,.39,0,.75,.22,.93,.57l.2,.4c.05,.1,.02,.22-.06,.29l-1.45,1.13c-.18,.14-.4,.22-.63,.22h0Z"/><path class="cls-3" d="M45.58,39.71c.2,0,.39,.11,.48,.3l.11,.21-1.28,1c-.09,.07-.21,.11-.32,.11-.05,0-.1,0-.15-.02l-.82-.25,.37-.98,1.5-.35s.08-.01,.12-.01m0-1c-.12,0-.23,.01-.35,.04l-1.5,.35c-.31,.07-.57,.3-.69,.6l-.76,2,1.84,.56c.15,.04,.3,.07,.44,.07,.34,0,.67-.11,.94-.32l1.45-1.13c.28-.22,.36-.6,.2-.91l-.2-.4c-.27-.53-.8-.85-1.37-.85h0Z"/></g><ellipse class="cls-5" cx="22.19" cy="30.5" rx=".73" ry=".66" transform="translate(-8.84 9.06) rotate(-19.32)"/><ellipse class="cls-5" cx="26.43" cy="26.47" rx=".73" ry=".66" transform="translate(-7.27 10.23) rotate(-19.32)"/><ellipse class="cls-5" cx="24.24" cy="28.44" rx=".72" ry=".66" transform="translate(-7.37 8.5) rotate(-17.31)"/></g></g><g><polygon class="cls-5" points="65.19 38.33 51.88 43.99 51.14 42.61 64.45 36.96 65.19 38.33"/><g><g><path class="cls-4" d="M63.8,34.55c-.14-2.39,.81-4.76,2.62-6.49,.53-.39,1.97-.99,3.34-.99,.68,0,1.24,.15,1.67,.43l.31,.2c-.57,.62-1.65,1.89-2.2,3.67l-1.01,2.83c-.42,.31-.94,.55-1.54,.73l-3.12,.94-.08-1.32Z"/><path class="cls-3" d="M69.77,27.56c.48,0,.89,.08,1.22,.25-.62,.73-1.44,1.88-1.9,3.37l-.96,2.7c-.36,.23-.78,.43-1.26,.57l-2.52,.76-.04-.69c-.13-2.22,.75-4.43,2.42-6.05,.54-.38,1.83-.9,3.04-.9m0-1c-1.45,0-2.99,.62-3.69,1.13h0c-1.91,1.83-2.93,4.35-2.78,6.88l.1,1.69c0,.11,.1,.19,.21,.19,.02,0,.04,0,.07,0l3.47-1.05c.66-.2,1.28-.49,1.81-.9l1.06-2.99c.75-2.44,2.56-3.86,2.47-3.92l-.78-.52c-.56-.37-1.24-.52-1.95-.52h0Zm.53,6.14h0c-.29,.77-.76,1.36-1.34,1.81l-.93,2.61c1.76-2.09,2.27-4.42,2.27-4.42h0Z"/></g><ellipse class="cls-5" cx="71.68" cy="30.92" rx="3.85" ry=".45" transform="translate(-4.76 46.77) rotate(-35.05)"/><ellipse class="cls-5" cx="72.46" cy="34.01" rx="5.49" ry=".5" transform="translate(-6.39 47.81) rotate(-35.07)"/><ellipse class="cls-5" cx="74.4" cy="36.06" rx="5.49" ry=".5" transform="translate(-7.21 49.3) rotate(-35.07)"/><g><path class="cls-4" d="M73.5,41.03c-.98,0-1.95-.17-2.88-.5l-3.78-1.36,.49-3.55,2.79,.03c3.03,.03,5.87,1.23,8.01,3.37l.47,.47-1.35,.67c-1.16,.57-2.46,.87-3.75,.87Z"/><path class="cls-3" d="M67.77,36.12l2.35,.02c2.89,.03,5.6,1.17,7.64,3.21l-.73,.36c-1.09,.54-2.31,.82-3.53,.82-.92,0-1.83-.16-2.7-.47l-3.4-1.23,.38-2.71m-.87-1.01l-.61,4.39,4.17,1.5c.99,.36,2.02,.53,3.04,.53,1.36,0,2.72-.31,3.97-.92l1.98-.97-.96-.97c-2.22-2.23-5.22-3.49-8.36-3.52l-3.23-.03h0Z"/></g><g><path class="cls-4" d="M67.92,44.11c-.41,0-.82-.08-1.2-.25l-4.92-2.14c-.79-.34-1.21-1.2-1.01-2.04l.41-1.72,7.09,.8c.49,.05,.94,.28,1.27,.64l3.09,3.33-3.83,1.24c-.3,.1-.61,.14-.92,.14Z"/><path class="cls-3" d="M61.58,38.51l6.65,.75c.37,.04,.71,.21,.96,.49l2.56,2.75-3.08,.99c-.25,.08-.5,.12-.76,.12-.34,0-.68-.07-.99-.21l-4.92-2.14c-.57-.25-.87-.86-.73-1.46l.31-1.29m-.77-1.09l-.52,2.15c-.26,1.07,.29,2.17,1.3,2.61l4.92,2.14c.44,.19,.92,.29,1.39,.29,.36,0,.72-.06,1.07-.17l4.58-1.48-3.63-3.9c-.42-.45-.98-.73-1.58-.8l-7.53-.85h0Z"/></g><g><path class="cls-4" d="M64.61,39.48c-1.21,0-2.29-.77-2.68-1.92l-.74-2.17,5.04-2.32c.7-.32,1.45-.49,2.22-.49,.72,0,1.42,.14,2.08,.42l3.59,1.53-1.14,1.6c-1.35,1.9-3.46,3.07-5.79,3.2l-2.41,.14h-.16Z"/><path class="cls-3" d="M68.45,33.08h0c.65,0,1.28,.13,1.88,.38l3.02,1.28-.78,1.1c-1.26,1.78-3.23,2.87-5.41,2.99l-2.41,.14s-.09,0-.13,0c-1,0-1.89-.63-2.21-1.58l-.6-1.74,4.63-2.13c.63-.29,1.31-.44,2.01-.44m0-1c-.83,0-1.66,.18-2.43,.53l-5.45,2.51,.89,2.6c.46,1.35,1.74,2.26,3.16,2.26,.06,0,.13,0,.19,0l2.41-.14c2.47-.14,4.74-1.4,6.17-3.41l1.49-2.11-4.16-1.77c-.73-.31-1.5-.46-2.27-.46h0Z"/></g><g><path class="cls-4" d="M63.55,36.39s-.08,0-.11-.02l-1.33-.53c-.12-.05-.19-.16-.17-.25l1.04-4.41c.17-.74,.23-1.51,.15-2.28l-.29-3.04,1.5,.96c1.72,1.12,1.72,2.57,1.14,4.69-.06,.13-.09,.19-.11,.25l-1.62,4.53c-.03,.07-.11,.11-.19,.11Z"/><path class="cls-3" d="M63.43,26.83l.63,.4c1.49,.97,1.48,2.16,.93,4.14-.03,.07-.07,.14-.09,.22l-1.51,4.22-.9-.36,.98-4.16c.19-.8,.24-1.62,.16-2.44l-.19-2.02m-1.19-1.95l.39,4.06c.07,.72,.02,1.43-.14,2.12l-1.04,4.41c-.08,.34,.12,.69,.47,.83l1.33,.53c.1,.04,.2,.06,.3,.06,.29,0,.56-.16,.66-.44l1.62-4.53c.03-.1,.09-.18,.12-.28,.52-1.89,.82-3.83-1.35-5.25l-2.37-1.51h0Z"/></g><g><path class="cls-4" d="M59.97,37.6l.3-2.42c.08-.17,.13-.35,.17-.53,.19-1.01,.85-1.92,1.82-2.48l.52-.3c0,.48,.12,1.33,.18,1.48l.18,.81c0,.17,0,.98,0,1.23l-1.33,2.84-1.82-.63Z"/><path class="cls-3" d="M62.32,32.71c.04,.25,.08,.51,.12,.68h0l.19,.82c0,.21,0,.75,0,1.04l-1.1,2.36-1.02-.35,.25-1.94c.08-.2,.14-.39,.17-.59,.15-.81,.65-1.53,1.39-2.02m.42-1.34c-.08,0-.15,.02-.22,.06l-.52,.3c-1.08,.62-1.84,1.63-2.06,2.82-.02,.13-.06,.28-.14,.46-.01,.03-.02,.06-.03,.1l-.32,2.48c-.03,.2,.11,.42,.33,.47h.02l2.13,.74s.03,0,.05,0c.05,0,.09-.02,.11-.06l1.49-3.2s.03-.09,.04-.14c0-.27,.01-1.09,0-1.29,0-.02,0-.05,0-.07l-.2-.88c-.02-.06-.14-.75-.2-1.38-.02-.24-.24-.41-.47-.41h0Z"/></g><g><path class="cls-4" d="M58.66,39.36l1.37-1.42c1.17-1.21,2.73-2,4.4-2.22l.29-.04c-.61,1.62-1.77,2.99-3.27,3.84l-1.75,.99-1.05-1.16Z"/><path class="cls-3" d="M63.89,36.33c-.61,1.15-1.54,2.12-2.69,2.77l-1.4,.79-.47-.52,1.04-1.08c.95-.98,2.18-1.67,3.5-1.96m1.58-1.25l-1.11,.15c-1.79,.24-3.44,1.07-4.7,2.37l-1.69,1.75,1.63,1.81,2.09-1.19c1.64-.93,2.89-2.42,3.53-4.19l.25-.69h0Z"/></g><g><path class="cls-4" d="M59.65,41.49c-.46,0-.92-.12-1.32-.35l-1.03-.59,.41-1.4,.66,.05c1.19,.1,2.26,.77,2.86,1.8h0l-.4,.2c-.37,.18-.77,.28-1.18,.28Z"/><path class="cls-3" d="M58.07,39.68l.25,.02c.85,.07,1.62,.48,2.16,1.12-.26,.11-.55,.17-.84,.17-.37,0-.74-.1-1.07-.28l-.69-.39,.18-.63m-.73-1.06l-.63,2.18,1.38,.78c.48,.27,1.02,.41,1.56,.41,.48,0,.96-.11,1.4-.33l.88-.43-.27-.47c-.69-1.17-1.9-1.94-3.25-2.05l-1.07-.09h0Z"/></g><g><path class="cls-4" d="M55.93,39.2s0-.06,0-.09l.88-2.63s0,0,0,0c0,0,.04-.06,.08-.12,.08-.13,.21-.24,.37-.32l1.41-.65c.1-.05,.43-.16,.72-.23l.28,1.27c.1,.46,0,.93-.29,1.28-.37,.45-.83,.98-1.52,1.44l-.04,.03-.83,.74-1.07-.73Z"/><path class="cls-3" d="M59.02,35.8l.17,.75c.07,.31,0,.62-.19,.86-.36,.45-.78,.92-1.41,1.34l-.06,.04-.05,.04-.52,.46-.46-.31,.76-2.26s.04-.06,.06-.09c.03-.05,.09-.1,.15-.13l1.41-.65,.05-.02h0s.05-.02,.08-.03m.69-1.18h0c-.43,.02-1.14,.27-1.24,.33l-1.41,.65c-.24,.11-.45,.29-.58,.51-.07,.11-.12,.2-.13,.22l-.9,2.67c-.02,.07,0,.15-.04,.41,0,.03,0,.06,.04,.08l1.6,1.09,1.1-.98h0c.76-.52,1.27-1.1,1.63-1.54,.38-.48,.53-1.09,.39-1.7-.15-.66-.32-1.43-.37-1.65,0-.04-.04-.06-.08-.06h0Zm-2.41,5.93s-.02,.02-.06,.04c.04-.03,.06-.04,.06-.04h0Zm-.27,.01l-.79,.7c.49-.32,.77-.51,.92-.61l-.13-.09h0Zm.21,.03s-.05,.03-.08,.06h0s.05-.04,.07-.06h0Z"/></g><g><path class="cls-4" d="M57.14,42.17c-.25,0-.49-.09-.67-.25l-1.39-1.22c-.08-.07-.1-.2-.05-.29l.23-.39c.19-.32,.53-.52,.9-.52,.1,0,.2,.01,.29,.04l1.48,.43c.15,.04,.27,.16,.32,.31l.48,1.53-1.35,.33c-.08,.02-.16,.03-.24,.03Z"/><path class="cls-3" d="M56.16,40h0c.05,0,.1,0,.15,.02l1.46,.42,.32,1.02-.83,.2s-.08,.01-.12,.01c-.13,0-.25-.05-.35-.13l-1.22-1.07,.12-.2c.1-.17,.27-.27,.47-.27m0-1c-.54,0-1.05,.28-1.33,.77l-.23,.39c-.17,.3-.11,.69,.15,.92l1.39,1.22c.28,.25,.64,.38,1,.38,.12,0,.24-.01,.36-.04l1.87-.45-.65-2.04c-.1-.31-.34-.55-.65-.64l-1.48-.43c-.14-.04-.29-.06-.43-.06h0Z"/></g><ellipse class="cls-5" cx="80.06" cy="32.13" rx=".66" ry=".73" transform="translate(19.65 93.72) rotate(-67.42)"/><ellipse class="cls-5" cx="76.05" cy="27.88" rx=".66" ry=".73" transform="translate(21.11 87.4) rotate(-67.42)"/><ellipse class="cls-5" cx="78.13" cy="29.97" rx=".66" ry=".72" transform="translate(22.62 92.59) rotate(-69.43)"/></g></g><g><polygon class="cls-5" points="49.38 29.54 50.02 43.99 51.58 44.06 50.94 29.61 49.38 29.54"/><g><g><path class="cls-4" d="M51.67,26.43c-.09-.61-.1-1.18,0-1.7l2.14-2.14c1.36-1.24,2.04-2.77,2.35-3.55l.32,.19c1.49,.89,1.87,3.66,1.64,4.83-.77,2.32-2.49,4.2-4.71,5.1l-1.23,.5-.5-3.22Z"/><path class="cls-3" d="M56.38,19.77c1.09,.84,1.42,3.06,1.25,4.13-.75,2.21-2.36,3.95-4.42,4.79l-.64,.26-.4-2.6c-.08-.5-.09-.96-.03-1.38l1.99-2c1.17-1.08,1.86-2.33,2.26-3.2m-.47-1.46c-.1,0-.61,2.21-2.47,3.92l-2.24,2.25c-.14,.65-.14,1.34-.03,2.02l.55,3.58c.02,.11,.11,.18,.21,.18,.03,0,.05,0,.08-.02l1.57-.64c2.35-.95,4.19-2.96,5.01-5.47h0c.25-1.27-.11-4.3-1.87-5.35l-.81-.48h0Zm-3.65,4.18s-1.88,1.46-3.01,3.95l1.95-1.96c.15-.71,.49-1.39,1.06-1.99h0Z"/></g><ellipse class="cls-5" cx="53.27" cy="20.48" rx="3.85" ry=".45" transform="translate(24.27 69.63) rotate(-80.48)"/><ellipse class="cls-5" cx="50.14" cy="21.11" rx="5.49" ry=".5" transform="translate(21.02 67.06) rotate(-80.46)"/><ellipse class="cls-5" cx="47.47" cy="20.25" rx="5.49" ry=".5" transform="translate(19.63 63.7) rotate(-80.46)"/><g><path class="cls-4" d="M45.29,25.81c-1.78-1.76-2.78-4.2-2.75-6.7v-1.18l.54,.18c2.92,1.03,5.28,3.12,6.65,5.91l1.18,2.41-2.99,1.97-2.63-2.6Z"/><path class="cls-3" d="M43.05,18.63c2.74,1,4.95,2.99,6.23,5.61l.99,2.01-2.29,1.51-2.34-2.31c-1.68-1.66-2.63-3.97-2.6-6.34v-.48m-.98-1.41l-.02,1.88c-.03,2.65,1.01,5.2,2.9,7.06l2.91,2.88,3.7-2.44-1.37-2.8c-1.41-2.88-3.9-5.09-6.93-6.16l-1.18-.41h0Z"/></g><g><path class="cls-4" d="M48.94,34.49c-.42,0-.83-.15-1.15-.43l-4.07-3.53c-.55-.48-.9-1.13-1-1.85l-.54-3.99,4.34,1.36c.46,.15,.86,.45,1.12,.87l3.78,6.06-1.38,1.12c-.31,.25-.71,.39-1.11,.39h0Z"/><path class="cls-3" d="M42.79,25.4l3.59,1.12c.35,.11,.65,.34,.85,.65l3.55,5.68-1.04,.84c-.23,.18-.5,.28-.79,.28s-.6-.11-.82-.31l-4.07-3.53c-.46-.4-.75-.94-.83-1.54l-.43-3.21m-1.2-1.42l.64,4.77c.11,.84,.53,1.61,1.17,2.16l4.07,3.53c.42,.37,.95,.55,1.48,.55s1.01-.17,1.42-.5l1.72-1.4-4.02-6.43c-.32-.52-.82-.9-1.4-1.08l-5.09-1.59h0Z"/></g><g><path class="cls-4" d="M50.4,32.26c-.67,0-1.27-.4-1.53-1.03l-1.78-4.35c-.55-1.34-.46-2.84,.25-4.11l1.63-2.93,3.61,3.18c.68,.6,1.08,1.47,1.1,2.39l.09,6.47-3.17,.37c-.06,0-.13,.01-.19,.01Z"/><path class="cls-3" d="M49.1,20.63l3.14,2.77c.58,.51,.92,1.25,.93,2.02l.09,6.01-2.72,.32s-.09,0-.13,0c-.47,0-.89-.28-1.06-.71l-1.78-4.35c-.49-1.2-.41-2.54,.22-3.67l1.33-2.39m-.27-1.57l-1.93,3.47c-.78,1.39-.88,3.06-.27,4.54l1.78,4.35c.33,.81,1.13,1.34,1.99,1.34,.08,0,.17,0,.25-.01l3.62-.42-.1-6.92c-.01-1.06-.47-2.06-1.27-2.75l-4.07-3.59h0Z"/></g><g><path class="cls-4" d="M53.16,31.33c-.07,0-.14-.03-.19-.08l-1.05-.97c-.06-.05-.09-.13-.09-.2,0-.05,.01-.08,.04-.11l3.39-3.42s.08-.09,.12-.14c1.12-.99,2.03-1.6,3.07-1.6,.55,0,1.12,.18,1.71,.54l1.51,.94-2.87,1.05c-.73,.27-1.4,.64-1.99,1.12l-3.53,2.84s-.08,.03-.11,.03Z"/><path class="cls-3" d="M58.44,25.31c.46,0,.94,.15,1.44,.46l.64,.4-1.91,.7c-.78,.29-1.5,.69-2.13,1.2l-3.33,2.67-.71-.66,3.16-3.18c.06-.06,.11-.12,.15-.18,.98-.85,1.81-1.41,2.69-1.41m0-1c-1.27,0-2.34,.79-3.34,1.66-.08,.07-.13,.16-.2,.23l-3.39,3.42c-.27,.27-.24,.74,.07,1.03l1.05,.97c.15,.14,.35,.21,.53,.21,.15,0,.3-.05,.42-.14l3.53-2.84c.55-.44,1.18-.79,1.85-1.04l3.83-1.4-2.38-1.48c-.71-.43-1.37-.61-1.97-.61h0Z"/></g><g><path class="cls-4" d="M50.94,32.56l2.03-2.46c.19-.09,.91-.44,1.09-.51l.86-.19c.11,0,.95-.27,1.4-.44l-.1,.56c-.09,1.11-.62,2.1-1.45,2.71-.15,.11-.29,.24-.43,.4l-2.03,1.3-1.36-1.38Z"/><path class="cls-3" d="M55.69,29.7c-.12,.88-.56,1.65-1.22,2.13-.16,.11-.31,.25-.46,.41l-1.64,1.06-.75-.77,1.66-2.01c.26-.13,.74-.36,.94-.45l.82-.18h0c.17-.04,.42-.11,.66-.19m.6-1.23s-.1,0-.14,.03c-.6,.22-1.27,.41-1.33,.42l-.88,.2s-.05,.01-.07,.02c-.18,.08-.93,.44-1.16,.56-.04,.02-.08,.06-.12,.09l-2.25,2.73s-.03,.12,.02,.17l1.58,1.61,.02,.02c.09,.1,.21,.16,.34,.16,.08,0,.16-.02,.23-.07l2.1-1.36s.05-.04,.08-.07c.13-.15,.25-.25,.36-.33,.98-.71,1.56-1.83,1.66-3.07l.05-.59c.02-.27-.22-.5-.47-.5h0Z"/></g><g><path class="cls-4" d="M49.77,35.43l.15-2.04c.12-1.72,.85-3.34,2.05-4.57l.16,.49c.48,1.47,.44,3.07-.1,4.51l-.76,2.05-1.5-.44Z"/><path class="cls-3" d="M51.76,29.83c.33,1.26,.26,2.6-.19,3.82l-.6,1.61-.67-.2,.12-1.64c.09-1.31,.56-2.56,1.35-3.6m.43-1.95l-.54,.55c-1.31,1.32-2.1,3.07-2.23,4.93l-.17,2.44,2.33,.69,.93-2.49c.58-1.56,.62-3.26,.1-4.84l-.41-1.27h0Z"/></g><g><path class="cls-4" d="M49.97,37.05c-.83-.58-1.32-1.53-1.31-2.55v-.24h.18c1.08,.1,2.06,.72,2.6,1.66l.42,.72-1.09,.97-.81-.56Z"/><path class="cls-3" d="M49.18,34.83c.77,.17,1.44,.65,1.84,1.34l.21,.37-.49,.44-.48-.34c-.61-.42-.99-1.08-1.08-1.81m-1.01-1.11v.77c-.03,1.18,.54,2.29,1.51,2.96l1.13,.79,1.69-1.51-.63-1.07c-.63-1.08-1.75-1.79-2.99-1.89l-.71-.06h0Z"/></g><g><path class="cls-4" d="M51.48,37.61l.32-1.11v-.08c.12-.74,.39-1.39,.64-1.92,.2-.41,.57-.71,1.03-.81l1.27-.29c.06,.29,.1,.62,.1,.71l.02,1.59c0,.17-.04,.33-.13,.47-.05,.07-.09,.14-.11,.17l-1.98,1.91s-.03,0-.05,.02l-1.12-.66Z"/><path class="cls-3" d="M54.33,34.01s0,.06,0,.09h0v.06l.02,1.56c0,.07-.02,.14-.05,.19-.02,.03-.04,.07-.06,.09l-1.71,1.66-.48-.28,.19-.67,.02-.07v-.07c.12-.75,.36-1.33,.61-1.84,.13-.28,.38-.47,.69-.54l.64-.15,.11-.02m.69-1.18h-.02l-1.65,.38c-.61,.14-1.1,.53-1.37,1.09-.25,.51-.55,1.22-.69,2.13h0l-.41,1.42,1.67,.98s.03,.01,.04,.01c.02,0,.03,0,.04-.01,.21-.15,.29-.16,.35-.21l2.02-1.96s.07-.1,.14-.21c.14-.22,.21-.48,.21-.74l-.02-1.56c.01-.12-.07-.87-.24-1.26-.01-.03-.05-.05-.08-.05h0Zm-4.24,4.78s0,.02-.01,.07c.01-.04,.02-.07,.01-.07h0Zm-.01,.07s-.01,.06-.02,.09h0s.01-.07,.02-.09h0Zm-.02,.09c-.03,.18-.08,.51-.16,1.1l.29-1.02-.14-.08h0Z"/></g><g><path class="cls-4" d="M51.7,39.7s-.06,0-.09-.02l-1.72-.74c-.3-.13-.52-.39-.58-.71l-.29-1.37s1.61-.22,1.62-.22c.18,0,.3,.05,.38,.15l1.05,1.17c.31,.35,.35,.86,.08,1.25l-.28,.4c-.04,.06-.11,.09-.18,.09h0Z"/><path class="cls-3" d="M50.67,37.14l1.03,1.15c.16,.18,.17,.43,.04,.63l-.15,.21-1.51-.65c-.15-.06-.26-.2-.29-.35l-.18-.85,1.04-.15m.02-1s-.09,0-.13,0l-2.13,.3,.4,1.9c.1,.48,.43,.87,.87,1.07l1.72,.74c.09,.04,.19,.06,.28,.06,.23,0,.46-.11,.59-.31l.28-.4c.39-.57,.34-1.34-.12-1.86l-1.05-1.17c-.18-.2-.44-.32-.71-.32h0Z"/></g><ellipse class="cls-5" cx="48.57" cy="13.45" rx=".66" ry=".73" transform="translate(6.13 40.62) rotate(-48.11)"/><ellipse class="cls-5" cx="54.13" cy="15.23" rx=".66" ry=".73" transform="translate(6.65 45.36) rotate(-48.11)"/><ellipse class="cls-5" cx="51.35" cy="14.25" rx=".66" ry=".72" transform="translate(5.48 41.38) rotate(-46.11)"/></g></g></g></g></g></svg>